<?xml version="1.0" encoding="UTF-8"?>
<svg width="12px" height="15px" viewBox="0 0 12 15" version="1.1" xmlns="http://www.w3.org/2000/svg" xmlns:xlink="http://www.w3.org/1999/xlink">
    <!-- Generator: Sketch 61 (89581) - https://sketch.com -->
    <title>Babel</title>
    <desc>Created with Sketch.</desc>
    <g id="Page-1" stroke="none" stroke-width="1" fill="none" fill-rule="evenodd">
        <g id="Resume-Letter" transform="translate(-132.000000, -493.000000)" fill="#2555AC" fill-rule="nonzero">
            <g id="Skills&amp;Tools" transform="translate(30.000000, 439.000000)">
                <g id="Skills" transform="translate(5.000000, 30.500000)">
                    <g id="Skill-Group2" transform="translate(97.000000, 0.000000)">
                        <g id="Babel" transform="translate(0.000000, 23.000000)">
                            <g transform="translate(0.000000, 1.000000)" id="Shape">
                                <path d="M8.97908521,0.208333333 C8.66430125,0.201806386 8.31444667,0.229358723 7.92561854,0.302327475 C4.65270187,0.915869146 3.45777667,1.882181 3.40861,1.92301433 C3.34319333,1.97738931 3.31746417,2.06596679 3.34350583,2.14721679 C3.3695475,2.22805012 3.44242521,2.28542644 3.52742521,2.29125977 L3.67472333,2.30143229 L2.38484708,3.15999354 C2.30651375,3.21207687 2.27286125,3.30987625 2.30265292,3.39925125 L2.51098625,4.02425125 C2.53202792,4.08779292 2.58211917,4.13690104 2.6460775,4.15690104 C2.7098275,4.17752604 2.77971021,4.16537104 2.83325188,4.12516271 L3.46720375,3.64990229 L3.56363938,3.84318042 C3.59280604,3.90151375 3.64758458,3.94258792 3.71175125,3.95467125 C3.77591792,3.96696292 3.84184896,3.94817375 3.88997396,3.90421542 C4.17747396,3.64359042 4.88221021,3.02555333 5.33325188,2.70263667 L0.853678375,12.0214844 C0.822636708,12.086276 0.826946625,12.1622754 0.865071625,12.2229004 C0.903196604,12.2835254 0.97,12.3201498 1.04166667,12.3201498 L1.3635254,12.3201498 L1.04777019,13.2674154 C1.01735352,13.3590821 1.05336915,13.459909 1.13566081,13.5107421 C1.16941081,13.5315756 1.20740885,13.5416667 1.24511719,13.5416667 C1.29886719,13.5416667 1.35219727,13.5208398 1.39282227,13.4806315 L2.57364917,12.2998046 C2.5744825,12.2993879 2.57525708,12.2990006 2.57609042,12.298584 C9.83088208,10.424834 10.6152344,7.70061521 10.6152344,6.61499021 C10.6152344,6.11957354 10.205879,5.65970062 9.93733729,5.41178375 C10.3229623,5.13636729 11.0935971,4.51842125 11.6035971,3.66821292 C11.9681804,3.06029625 11.8676627,2.09498698 11.364746,1.37207031 C11.0444856,0.911822917 10.343149,0.236616771 8.97908521,0.208333333 Z M8.93758146,0.624593104 C10.1444929,0.641336375 10.749746,1.21641602 11.0229492,1.60929362 C11.4866992,2.27596029 11.4842546,3.05711917 11.2463379,3.45336917 C10.6111296,4.5123275 9.4948925,5.2087825 9.4836425,5.2156575 C9.4248925,5.2519075 9.38809896,5.31495771 9.38476563,5.38370771 C9.38164063,5.45266604 9.412565,5.51864583 9.46777333,5.55989583 C9.67110667,5.71239583 10.1985677,6.19895833 10.1985677,6.61458333 C10.1985677,7.38708333 9.63917313,10.0516081 2.43896479,11.9034831 C2.43479813,11.9045248 2.43092438,11.9056869 2.42675792,11.9071452 C2.42092458,11.9083952 2.41529292,11.9101627 2.40966792,11.911621 C2.37570958,11.9214127 2.34474292,11.9395183 2.31974292,11.9645183 L1.72200521,12.5622558 L1.85017896,12.1777344 C1.87122062,12.114401 1.86045583,12.0445279 1.82128917,11.9901529 C1.78233083,11.9357779 1.71930021,11.9034831 1.65242521,11.9034831 L1.37288412,11.9034831 L5.98225917,2.31404625 C6.01913417,2.2369629 6.00558917,2.14543619 5.9476725,2.08251954 C5.88975583,2.01981119 5.79897458,1.99838217 5.71980792,2.0292155 C5.60814125,2.07213217 5.50862625,2.11357748 5.43050125,2.15128581 C5.05529292,2.3317025 4.21283208,3.05955396 3.81429042,3.41267896 L3.72802729,3.24015292 C3.70031896,3.18494458 3.64988938,3.14445646 3.58968104,3.13028979 C3.52968104,3.11633146 3.46612313,3.12942062 3.41674813,3.16650396 L2.81453458,3.61775708 L2.74820958,3.41796875 L4.41487625,2.30875646 C4.48925125,2.25958983 4.52344083,2.16815429 4.5007325,2.08211262 C4.47802417,1.99586263 4.40292313,1.93374023 4.31396479,1.92749023 L4.20084625,1.91975913 C4.81751313,1.59246744 6.01564771,1.08376302 8.00252271,0.711263021 C8.34846021,0.646536458 8.65906333,0.620729271 8.93758146,0.624593104 Z M8.41105146,1.49658204 C8.21889333,1.49856121 8.02404292,1.50637369 7.832845,1.51611329 L7.75024417,1.52058919 C7.63586917,1.52621419 7.49390292,1.54409179 7.32869458,1.57430012 C7.26265292,1.58617512 7.20669271,1.6288379 7.17773438,1.68904623 L5.43741854,5.32674146 C5.40116854,5.40215812 5.41354167,5.49149083 5.46875,5.55419917 C5.50895833,5.59982417 5.56625,5.625 5.625,5.625 C5.646875,5.625 5.66883458,5.62151375 5.69091792,5.61401375 C6.01966792,5.50505542 6.62813479,5.30222667 7.10896813,5.14160167 L7.56632479,4.98860667 C8.23444979,4.76610687 8.9766275,4.49506187 9.32454417,4.09464521 C9.4972525,3.89589521 9.7172525,3.62266937 9.89746083,3.33496083 C9.9053775,3.33933604 9.91373042,3.34301104 9.92268875,3.34676104 C9.97935542,3.36967771 10.0945508,3.39464187 10.2270508,3.30485021 C10.4416342,3.15943354 10.6156413,2.73959958 10.6156413,2.54272458 C10.6156413,2.33126625 10.4437533,1.94563477 10.24292,1.7964681 C10.1133367,1.70000977 9.99688146,1.71487631 9.93896479,1.73258462 C9.92375646,1.73737629 9.90859042,1.74338542 9.89379875,1.75130208 C9.53942375,1.53833333 8.98752604,1.49064452 8.41105146,1.49658204 Z M8.34594729,1.9144694 C8.91690438,1.90498698 9.64405604,1.94468098 9.82014979,2.24202475 C9.87264979,2.33098312 9.98206375,2.36766271 10.0789387,2.32828771 C10.0928971,2.32224604 10.1057096,2.31526375 10.1180013,2.30672208 C10.1627929,2.39609708 10.1981608,2.49397458 10.1981608,2.54272458 C10.1981608,2.59959958 10.1464029,2.73219083 10.0891113,2.83406583 C10.0228613,2.75719083 9.93488292,2.74169917 9.87467458,2.74169917 C9.79550771,2.74169917 9.72311521,2.78703125 9.68790687,2.85807292 C9.55207354,3.13432292 9.31711271,3.46744792 9.00919604,3.82161458 C8.70669604,4.16973958 7.87908208,4.44598625 7.43408208,4.59431958 L6.97631833,4.74650062 C6.67590167,4.84691729 6.32520187,4.96429042 6.02457688,5.06429042 L7.50691729,1.96614583 C7.60900063,1.95010417 7.6976725,1.94038085 7.77058917,1.93725585 L7.85319,1.93277996 C7.98261729,1.92642579 8.15562833,1.91763021 8.34594729,1.9144694 Z M3.00170896,4.74405917 C2.92076167,4.74022146 2.84104813,4.78424813 2.80354813,4.86206063 C2.75354813,4.96560229 2.79745438,5.09018229 2.90120438,5.13997396 L3.27677417,5.32023104 C3.30594083,5.33439771 3.3362825,5.34098313 3.36669917,5.34098313 C3.44419917,5.34098313 3.5190625,5.29736646 3.5546875,5.22257479 C3.6046875,5.11903313 3.56078125,4.99445313 3.45703125,4.94466146 L3.08146167,4.76440438 C3.05568042,4.75195646 3.02869146,4.74533854 3.00170896,4.74405917 Z M2.5679525,5.64656583 C2.48700521,5.64271812 2.40729167,5.68691083 2.36979167,5.76456708 C2.31979167,5.86831708 2.36369792,5.99309562 2.46744792,6.04288729 L2.84261062,6.22314458 C2.87177729,6.23731125 2.90252604,6.24389646 2.93294271,6.24389646 C3.01044271,6.24389646 3.08469083,6.20007167 3.12052417,6.12548833 C3.17052417,6.02173833 3.12702479,5.89736646 3.02327479,5.84757479 L2.647705,5.66691083 C2.62192375,5.65446292 2.59493479,5.64784833 2.5679525,5.64656583 Z M7.86458333,5.79874667 C7.21101688,5.76579583 6.25353188,6.14903979 4.92228187,6.68172208 C4.82103187,6.72234708 4.77470375,6.81919271 4.69116208,6.99544271 C4.67095375,7.03794271 4.64210937,7.0993425 4.62565104,7.1280925 C4.60627604,7.1462175 4.59051437,7.168405 4.57926437,7.19319667 L3.35164396,9.91455083 C3.31768562,9.98955083 3.33163729,10.0777019 3.38663729,10.1391602 C3.42684562,10.1841602 3.48354167,10.2083333 3.54166667,10.2083333 C3.56333333,10.2083333 3.58491542,10.2050358 3.60595708,10.1981608 C4.87616542,9.7854525 6.07459625,9.37745771 6.77897125,8.92537438 C7.48542979,8.47183271 8.24511063,7.93443042 8.51969396,7.38484708 C8.74302729,6.93797208 8.86865229,6.64661125 8.72802729,6.36515292 C8.53951167,5.98835604 8.25672313,5.81851729 7.86458333,5.79874667 Z M7.72583,6.21988938 C8.03663812,6.21299958 8.23750979,6.31534188 8.35571292,6.55151375 C8.40425458,6.64880542 8.32383792,6.84598625 8.14737958,7.19848625 C7.88696292,7.71952792 6.95290354,8.31838542 6.55436208,8.57421875 C5.97519521,8.94609375 4.96847979,9.30994792 3.92618812,9.65494792 L4.94303375,7.40071625 C4.98407562,7.35050771 5.0185775,7.27761396 5.0679525,7.17407229 C5.0854525,7.13740563 5.11186521,7.0823275 5.13061521,7.04711917 C6.38465167,6.54568688 7.20781667,6.23137208 7.72583,6.21988938 Z M2.13338208,6.54947917 C2.05235688,6.54564125 1.97297208,6.58966792 1.93562833,6.66748042 C1.88562833,6.77102208 1.92953458,6.89560229 2.03328458,6.94539396 L2.40885417,7.12565104 C2.43802083,7.13981771 2.46836271,7.14640292 2.49877938,7.14640292 C2.57627938,7.14640292 2.6511425,7.10278646 2.6867675,7.02799479 C2.7367675,6.92445313 2.69286125,6.79987312 2.58911125,6.75008146 L2.21354167,6.56982417 C2.18770833,6.55737625 2.16039063,6.55075854 2.13338208,6.54947917 Z M1.69962562,7.4523925 C1.61859042,7.44862313 1.53896479,7.49248708 1.50146479,7.56998708 C1.45167319,7.67373687 1.49537104,7.79851563 1.59912104,7.84830729 L1.97469083,8.02856438 C2.0038575,8.04273104 2.03460604,8.04931646 2.06502271,8.04931646 C2.14252271,8.04931646 2.21717771,8.00589833 2.25301104,7.931315 C2.30280271,7.82756521 2.25910479,7.70278646 2.15535479,7.65299479 L1.77978521,7.47233083 C1.75395187,7.459935 1.72663729,7.45364917 1.69962562,7.4523925 Z M1.26586915,8.35489917 C1.18492188,8.35105146 1.10561523,8.39524417 1.06811523,8.47290042 C1.01811523,8.57665042 1.06161458,8.70142896 1.16536458,8.75122063 L1.54093417,8.93147792 C1.57010083,8.94564458 1.60044271,8.95222979 1.63085938,8.95222979 C1.70835938,8.95222979 1.78322271,8.908405 1.81884771,8.83382167 C1.86884771,8.73007167 1.82494146,8.60569979 1.72119146,8.55590813 L1.34602865,8.37524417 C1.3202474,8.36279625 1.29285156,8.35618167 1.26586915,8.35489917 Z M0.832112625,9.2578125 C0.751116542,9.25400396 0.671295563,9.29800125 0.633951833,9.37581375 C0.583951833,9.47935542 0.627858063,9.60393563 0.731608083,9.65372729 L1.10717773,9.83398438 C1.1363444,9.84815104 1.16668619,9.85473625 1.19710288,9.85473625 C1.27460285,9.85473625 1.34946615,9.81111979 1.38509115,9.73632813 C1.43509115,9.63278646 1.3911849,9.50820646 1.2874349,9.45841479 L0.911865229,9.2781575 C0.886083979,9.26576167 0.859111333,9.25908208 0.832112625,9.2578125 Z M6.15356438,9.79207354 C6.12653646,9.79334312 6.0993425,9.80002271 6.073405,9.81241854 C5.66361333,10.0092935 5.20837563,10.1988835 4.72045896,10.3763835 C4.61233396,10.4155502 4.55678063,10.5349773 4.59594729,10.6433106 C4.62678063,10.727894 4.70645833,10.7800294 4.79166667,10.7800294 C4.81520833,10.7800294 4.83933271,10.776364 4.86287438,10.7678223 C5.36391604,10.5859473 5.83198563,10.390905 6.25406896,10.1879883 C6.35781896,10.1381967 6.40111,10.0136165 6.35131833,9.91007479 C6.31397458,9.83226229 6.23464854,9.788265 6.15356438,9.79207354 Z M0.397949208,10.1607258 C0.316923833,10.1569173 0.237539062,10.2009148 0.200195312,10.2787273 C0.150195312,10.382269 0.193694667,10.506849 0.297444667,10.5566406 L0.673014333,10.7368977 C0.702180979,10.7510644 0.732929687,10.7576498 0.763346354,10.7576498 C0.840846354,10.7576498 0.915302729,10.7140331 0.950927729,10.6392415 C1.00092773,10.5356998 0.957428396,10.4111198 0.853678375,10.3613281 L0.478108729,10.1806642 C0.452275396,10.1682683 0.424957687,10.1619954 0.397949208,10.1607258 Z M4.04256188,10.6254069 C4.01564771,10.6229525 3.98765958,10.6259115 3.96036792,10.6347656 C3.74140958,10.7045573 3.51365875,10.773356 3.27636708,10.8410644 C3.16574208,10.872731 3.10147125,10.9880079 3.13313792,11.0986329 C3.15938792,11.1902994 3.24270833,11.25 3.33333333,11.25 C3.35208333,11.25 3.37153979,11.2474773 3.39070646,11.242269 C3.63216479,11.1733106 3.86420583,11.1029427 4.08691417,11.031901 C4.19649729,10.996901 4.25700521,10.8794402 4.22200521,10.7698567 C4.19575521,10.6876692 4.12330396,10.6327702 4.04256188,10.6254069 Z"></path>
                            </g>
                        </g>
                    </g>
                </g>
            </g>
        </g>
    </g>
</svg>