<?xml version="1.0" encoding="UTF-8"?>
<svg width="12px" height="13px" viewBox="0 0 12 13" version="1.1" xmlns="http://www.w3.org/2000/svg" xmlns:xlink="http://www.w3.org/1999/xlink">
    <!-- Generator: Sketch 61 (89581) - https://sketch.com -->
    <title>Bootstrap</title>
    <desc>Created with Sketch.</desc>
    <g id="Page-1" stroke="none" stroke-width="1" fill="none" fill-rule="evenodd">
        <g id="Resume-Letter" transform="translate(-132.000000, -517.000000)" fill="#2555AC" fill-rule="nonzero">
            <g id="Skills&amp;Tools" transform="translate(30.000000, 439.000000)">
                <g id="Skills" transform="translate(5.000000, 30.500000)">
                    <g id="Skill-Group2" transform="translate(97.000000, 0.000000)">
                        <g id="Bootstrap" transform="translate(0.000000, 46.000000)">
                            <g transform="translate(0.000000, 2.000000)" id="Shape">
                                <path d="M0,0 L0,11.7857143 L11.7857143,11.7857143 L11.7857143,0 L0,0 Z M1.07142857,1.07142857 L10.7142857,1.07142857 L10.7142857,10.7142857 L1.07142857,10.7142857 L1.07142857,1.07142857 Z M3.21428571,2.67857143 L3.21428571,5.63023179 L3.21428571,9.10191107 C6.39107143,9.10191107 7.02673018,9.14476821 7.6213725,8.9679825 C7.96958679,8.86083964 8.92299107,8.51806661 8.92299107,7.31270946 C8.92299107,6.77699518 8.76240214,5.87092607 7.71240214,5.64592607 L7.71240214,5.63023179 L7.51464857,5.63023179 C8.05036286,5.38916036 8.38727679,4.93443054 8.38727679,4.26478821 C8.38727679,4.09335911 8.4354075,2.67857143 6.5604075,2.67857143 L3.21428571,2.67857143 Z M4.28571429,3.75 L6.42857143,3.75 C7.23696429,3.75 7.31584821,4.20708964 7.31584821,4.54833964 C7.31584821,5.38083964 6.44464286,5.35714286 6.42857143,5.35714286 L4.28571429,5.35714286 L4.28571429,3.75 Z M4.28571429,6.42857143 L6.83558893,6.42857143 C7.83255321,6.42857143 7.8515625,7.05882268 7.8515625,7.22167982 C7.8515625,8.05739411 6.98818339,8.03571429 6.88371911,8.03571429 L4.28571429,8.03571429 L4.28571429,6.42857143 Z"></path>
                            </g>
                        </g>
                    </g>
                </g>
            </g>
        </g>
    </g>
</svg>