<?xml version="1.0" encoding="UTF-8"?>
<svg width="12px" height="15px" viewBox="0 0 12 15" version="1.1" xmlns="http://www.w3.org/2000/svg" xmlns:xlink="http://www.w3.org/1999/xlink">
    <!-- Generator: Sketch 61 (89581) - https://sketch.com -->
    <title>csharp</title>
    <desc>Created with Sketch.</desc>
    <g id="Page-1" stroke="none" stroke-width="1" fill="none" fill-rule="evenodd">
        <g id="Resume-Letter" transform="translate(-394.000000, -541.000000)" fill="#2555AC" fill-rule="nonzero">
            <g id="Skills&amp;Tools" transform="translate(30.000000, 439.000000)">
                <g id="Skills" transform="translate(5.000000, 30.500000)">
                    <g id="Skill-Group5" transform="translate(359.000000, 0.000000)">
                        <g id="C-sharp" transform="translate(0.000000, 71.000000)">
                            <g id="csharp" transform="translate(0.000000, 1.000000)">
                                <path d="M11.1192661,5.39449541 L10.5908257,5.39449541 L10.4587156,6.05504587 L10.040367,6.05504587 L10.1724771,5.39449541 L9.63302752,5.39449541 L9.50091743,6.05504587 L8.91743119,6.05504587 L8.91743119,6.60550459 L9.40183486,6.60550459 L9.30275229,7.04587156 L8.91743119,7.04587156 L8.91743119,7.59633028 L9.19266055,7.59633028 L9.06055046,8.25688073 L9.58899083,8.25688073 L9.72110092,7.59633028 L10.1394495,7.59633028 L10.0073394,8.25688073 L10.546789,8.25688073 L10.6788991,7.59633028 L11.2293578,7.59633028 L11.2293578,7.04587156 L10.7779817,7.04587156 L10.8770642,6.60550459 L11.2293578,6.60550459 L11.2293578,6.05504587 L10.987156,6.05504587 L11.1192661,5.39449541 L11.1192661,5.39449541 Z M10.2495413,7.04587156 L9.83119266,7.04587156 L9.93027523,6.60550459 L10.3486239,6.60550459 L10.2495413,7.04587156 Z M11.9449541,3.44587156 C11.8788991,3.32477064 11.7908257,3.2146789 11.6917431,3.15963303 L6.39633028,0.0990825688 C6.30825688,0.0440366972 6.18715596,0.0220183486 6.05504587,0.0220183486 C5.92293578,0.0220183486 5.80183486,0.0550458716 5.71376147,0.0990825688 L0.374311927,3.15963303 C0.187155963,3.26972477 -7.10542736e-15,3.54495413 -7.10542736e-15,3.75412844 L-7.10542736e-15,9.88623853 C-7.10542736e-15,10.0073394 0.0770642202,10.1394495 0.15412844,10.2605505 L0.165137615,10.2715596 C0.220183486,10.359633 0.308256881,10.4366972 0.385321101,10.4807339 L5.70275229,13.5522936 C5.79082569,13.6073394 5.92293578,13.6293578 6.05504587,13.6293578 C6.18715596,13.6293578 6.30825688,13.5963303 6.39633028,13.5522936 L11.6256881,10.4807339 C11.812844,10.3706422 11.8899083,10.0954128 11.8899083,9.88623853 L11.8899083,3.75412844 C11.8899083,3.66605505 11.933945,3.5559633 11.8899083,3.46788991 L11.9449541,3.44587156 Z M11.4825688,3.67706422 C11.4825688,3.71009174 11.4495413,3.73211009 11.4495413,3.75412844 L11.4495413,9.88623853 C11.4495413,9.97431193 11.4275229,10.0733945 11.4055046,10.106422 L6.16513761,13.1669725 C6.15412844,13.1779817 6.11009174,13.1889908 6.0440367,13.1889908 C5.97798165,13.1889908 5.93394495,13.1779817 5.92293578,13.1669725 L0.616513761,10.106422 C0.616513761,10.106422 0.605504587,10.0954128 0.594495413,10.0954128 L0.528440367,10.0293578 C0.48440367,9.95229358 0.550458716,9.90825688 0.440366972,9.89724771 L0.440366972,3.76513761 C0.550458716,3.71009174 0.539449541,3.57798165 0.594495413,3.5559633 L5.91192661,0.48440367 C5.92293578,0.48440367 5.97798165,0.462385321 6.0440367,0.462385321 C6.11009174,0.462385321 6.15412844,0.473394495 6.16513761,0.48440367 L11.4495413,3.53394495 L11.493578,3.63302752 C11.5045872,3.6440367 11.4825688,3.66605505 11.4825688,3.67706422 Z M6.05504587,9.52293578 C4.56880734,9.52293578 3.35779817,8.31192661 3.35779817,6.82568807 C3.35779817,5.33944954 4.56880734,4.12844037 6.05504587,4.12844037 C7.05688073,4.12844037 7.93761468,4.67889908 8.4,5.50458716 L9.83119266,4.67889908 C9.08256881,3.36880734 7.6733945,2.47706422 6.05504587,2.47706422 C3.65504587,2.47706422 1.70642202,4.42568807 1.70642202,6.82568807 C1.70642202,9.22568807 3.65504587,11.1743119 6.05504587,11.1743119 C7.66238532,11.1743119 9.07155963,10.293578 9.82018349,8.99449541 L8.4,8.15779817 C7.93761468,8.97247706 7.05688073,9.52293578 6.05504587,9.52293578 L6.05504587,9.52293578 Z" id="Shape"></path>
                            </g>
                        </g>
                    </g>
                </g>
            </g>
        </g>
    </g>
</svg>