<?xml version="1.0" encoding="UTF-8"?>
<svg width="12px" height="14px" viewBox="0 0 12 14" version="1.1" xmlns="http://www.w3.org/2000/svg" xmlns:xlink="http://www.w3.org/1999/xlink">
    <!-- Generator: Sketch 61 (89581) - https://sketch.com -->
    <title>CSS3</title>
    <desc>Created with Sketch.</desc>
    <g id="Page-1" stroke="none" stroke-width="1" fill="none" fill-rule="evenodd">
        <g id="Resume-Letter" transform="translate(-226.000000, -539.000000)" fill="#2555AC" fill-rule="nonzero">
            <g id="Skills&amp;Tools" transform="translate(30.000000, 439.000000)">
                <g id="Skills" transform="translate(5.000000, 30.500000)">
                    <g id="Skill-Group3" transform="translate(191.000000, 0.000000)">
                        <g id="CSS" transform="translate(0.000000, 69.000000)">
                            <g id="CSS3" transform="translate(0.000000, 1.000000)">
                                <path d="M0,0 L1.31578947,11.8421053 L5.91591316,13.1578947 L10.5263158,11.8421053 L11.8421053,0 L0,0 Z M9.03063355,5.49187895 L8.77878289,9.59858158 L5.93904211,10.5263158 L3.09930132,9.59858158 L2.99136513,7.63517697 L4.43050987,7.63517697 L4.46648882,8.52693289 L5.93904211,9.02806316 L7.41416513,8.52693289 L7.52210132,6.92074408 L4.35855263,6.92074408 L4.28659539,5.49187895 L7.59148882,5.49187895 L7.69942434,4.06301382 L2.73951513,4.06301382 L2.63157895,2.63671908 L9.21052632,2.63671908 L9.03063355,5.49187895 Z" id="Shape"></path>
                            </g>
                        </g>
                    </g>
                </g>
            </g>
        </g>
    </g>
</svg>