<?xml version="1.0" encoding="UTF-8"?>
<svg width="12px" height="13px" viewBox="0 0 12 13" version="1.1" xmlns="http://www.w3.org/2000/svg" xmlns:xlink="http://www.w3.org/1999/xlink">
    <!-- Generator: Sketch 61 (89581) - https://sketch.com -->
    <title>dart</title>
    <desc>Created with Sketch.</desc>
    <g id="Page-1" stroke="none" stroke-width="1" fill="none" fill-rule="evenodd">
        <g id="Resume-Letter" transform="translate(-315.000000, -470.000000)" fill="#2555AC" fill-rule="nonzero">
            <g id="Skills&amp;Tools" transform="translate(30.000000, 439.000000)">
                <g id="Skills" transform="translate(5.000000, 30.500000)">
                    <g id="Skill-Group4" transform="translate(280.000000, 0.000000)">
                        <g id="Dart">
                            <g id="dart" transform="translate(0.000000, 1.000000)">
                                <path d="M2.36173908,2.90896467 L9.5673842,9.97293703 L9.5673842,11.8986782 L4.99126426,11.9225806 L2.79970072,9.75861166 C2.50448007,9.48437487 2.36092662,9.32548556 2.36092662,8.68778166 C2.36038485,8.24601683 2.36065573,6.31974451 2.36173908,2.90896467 Z M1.76308898,2.90896467 L1.76385344,8.85873041 C1.76334374,8.98693442 1.83113036,9.1740035 1.96721311,9.41993764 L0.325810033,7.75065834 C-0.0839673443,7.24966161 -0.0839673443,6.78172521 0.196324918,6.24164553 L1.76308898,2.90896467 Z M2.7147541,2.41696785 L8.67288197,2.41616868 C9.22429967,2.44901681 9.38552636,2.51185812 9.65915725,2.83064818 L11.9606557,5.06462903 L11.9606557,9.50163927 L9.97974216,9.50163927 L2.7147541,2.41696785 Z M6.24321187,0.127787477 C6.90994446,-0.0885605806 7.27012367,-0.0400399355 7.73813193,0.349008658 L9.54098361,2.12903226 C9.23478157,1.89118742 8.92145075,1.89508982 8.7092461,1.89591221 L2.6557377,1.89591221 L6.24321187,0.127787477 Z"></path>
                            </g>
                        </g>
                    </g>
                </g>
            </g>
        </g>
    </g>
</svg>