<?xml version="1.0" encoding="UTF-8"?>
<svg width="12px" height="13px" viewBox="0 0 12 13" version="1.1" xmlns="http://www.w3.org/2000/svg" xmlns:xlink="http://www.w3.org/1999/xlink">
    <!-- Generator: Sketch 61 (89581) - https://sketch.com -->
    <title>database</title>
    <desc>Created with Sketch.</desc>
    <g id="Page-1" stroke="none" stroke-width="1" fill="none" fill-rule="evenodd">
        <g id="Resume-Letter" transform="translate(-394.000000, -471.000000)" fill="#2555AC" fill-rule="nonzero">
            <g id="Skills&amp;Tools" transform="translate(30.000000, 439.000000)">
                <g id="Skills" transform="translate(5.000000, 30.500000)">
                    <g id="Skill-Group5" transform="translate(359.000000, 0.000000)">
                        <g id="Database">
                            <g id="database" transform="translate(0.000000, 2.000000)">
                                <path d="M1.8,7.2 C1.46862915,7.2 1.2,7.46862915 1.2,7.8 L1.2,10.2 C1.2,10.5313708 1.46862915,10.8 1.8,10.8 L10.2,10.8 C10.5313708,10.8 10.8,10.5313708 10.8,10.2 L10.8,7.8 C10.8,7.46862915 10.5313708,7.2 10.2,7.2 L1.8,7.2 Z M1.8,6 C0.80588745,6 0,5.19411255 0,4.2 L0,1.8 C0,0.80588745 0.80588745,0 1.8,0 L10.2,0 C11.1941125,0 12,0.80588745 12,1.8 L12,4.2 C12,5.19411255 11.1941125,6 10.2,6 C11.1941125,6 12,6.80588745 12,7.8 L12,10.2 C12,11.1941125 11.1941125,12 10.2,12 L1.8,12 C0.80588745,12 0,11.1941125 0,10.2 L0,7.8 C0,6.80588745 0.80588745,6 1.8,6 Z M1.8,1.2 C1.46862915,1.2 1.2,1.46862915 1.2,1.8 L1.2,4.2 C1.2,4.53137085 1.46862915,4.8 1.8,4.8 L10.2,4.8 C10.5313708,4.8 10.8,4.53137085 10.8,4.2 L10.8,1.8 C10.8,1.46862915 10.5313708,1.2 10.2,1.2 L1.8,1.2 Z M3,3.6 C2.66862915,3.6 2.4,3.33137085 2.4,3 C2.4,2.66862915 2.66862915,2.4 3,2.4 C3.33137085,2.4 3.6,2.66862915 3.6,3 C3.6,3.33137085 3.33137085,3.6 3,3.6 Z M4.8,3.6 C4.46862915,3.6 4.2,3.33137085 4.2,3 C4.2,2.66862915 4.46862915,2.4 4.8,2.4 C5.13137085,2.4 5.4,2.66862915 5.4,3 C5.4,3.33137085 5.13137085,3.6 4.8,3.6 Z M4.8,9.6 C4.46862915,9.6 4.2,9.33137085 4.2,9 C4.2,8.66862915 4.46862915,8.4 4.8,8.4 C5.13137085,8.4 5.4,8.66862915 5.4,9 C5.4,9.33137085 5.13137085,9.6 4.8,9.6 Z M3,9.6 C2.66862915,9.6 2.4,9.33137085 2.4,9 C2.4,8.66862915 2.66862915,8.4 3,8.4 C3.33137085,8.4 3.6,8.66862915 3.6,9 C3.6,9.33137085 3.33137085,9.6 3,9.6 Z" id="Shape"></path>
                            </g>
                        </g>
                    </g>
                </g>
            </g>
        </g>
    </g>
</svg>