<?xml version="1.0" encoding="UTF-8"?>
<svg width="20px" height="10px" viewBox="0 0 20 10" version="1.1" xmlns="http://www.w3.org/2000/svg" xmlns:xlink="http://www.w3.org/1999/xlink">
    <!-- Generator: Sketch 61 (89581) - https://sketch.com -->
    <title>django</title>
    <desc>Created with Sketch.</desc>
    <g id="Page-1" stroke="none" stroke-width="1" fill="none" fill-rule="evenodd">
        <g id="Resume-Letter" transform="translate(-226.000000, -495.000000)" fill="#2555AC" fill-rule="nonzero">
            <g id="Skills&amp;Tools" transform="translate(30.000000, 439.000000)">
                <g id="Skills" transform="translate(5.000000, 30.500000)">
                    <g id="Skill-Group3" transform="translate(191.000000, 0.000000)">
                        <g id="Django" transform="translate(0.000000, 23.000000)">
                            <g id="django" transform="translate(0.000000, 3.000000)">
                                <path d="M19.6363636,1.23116883 C19.6363636,0.561038961 19.0909091,0 18.4051948,0 L1.23116883,0 C0.545454545,0 -7.10542736e-15,0.545454545 -7.10542736e-15,1.23116883 L-7.10542736e-15,7.35584416 C-7.10542736e-15,8.02597403 0.545454545,8.57142857 1.23116883,8.57142857 L18.4207792,8.57142857 C19.0909091,8.57142857 19.6519481,8.02597403 19.6519481,7.34025974 L19.6519481,1.23116883 L19.6363636,1.23116883 Z M19.3246753,7.34025974 C19.3246753,7.83896104 18.9194805,8.25974026 18.4051948,8.25974026 L1.23116883,8.25974026 C0.716883117,8.25974026 0.311688312,7.85454545 0.311688312,7.34025974 L0.311688312,1.23116883 C0.311688312,0.716883117 0.716883117,0.311688312 1.23116883,0.311688312 L18.4051948,0.311688312 C18.9038961,0.311688312 19.3246753,0.716883117 19.3246753,1.23116883 L19.3246753,7.34025974 Z M4.51948052,1.4025974 L3.58441558,1.4025974 L3.58441558,2.83636364 C3.42857143,2.80519481 3.31948052,2.78961039 3.17922078,2.78961039 C2.22857143,2.78961039 1.60519481,3.3974026 1.60519481,4.33246753 C1.60519481,5.2987013 2.21298701,5.7974026 3.31948052,5.7974026 C3.69350649,5.7974026 4.06753247,5.76623377 4.53506494,5.67272727 L4.53506494,1.4025974 L4.51948052,1.4025974 Z M3.58441558,5.03376623 C3.42857143,5.04935065 3.35064935,5.06493506 3.25714286,5.06493506 C2.78961039,5.06493506 2.52467532,4.8 2.52467532,4.31688312 C2.52467532,3.81818182 2.80519481,3.53766234 3.27272727,3.53766234 C3.38181818,3.53766234 3.44415584,3.55324675 3.6,3.58441558 L3.6,5.03376623 L3.58441558,5.03376623 Z M4.98701299,1.4025974 L5.92207792,1.4025974 L5.92207792,2.33766234 L4.98701299,2.33766234 L4.98701299,1.4025974 Z M4.98701299,4.65974026 C4.98701299,5.45454545 4.95584416,5.75064935 4.83116883,6.01558442 C4.70649351,6.26493506 4.51948052,6.43636364 4.11428571,6.62337662 L4.97142857,7.02857143 C5.37662338,6.82597403 5.57922078,6.63896104 5.71948052,6.35844156 C5.87532468,6.06233766 5.93766234,5.7038961 5.93766234,4.97142857 L5.93766234,2.80519481 L5.0025974,2.80519481 L5.0025974,4.65974026 L4.98701299,4.65974026 Z M7.71428571,2.78961039 C7.29350649,2.78961039 7.01298701,2.86753247 6.54545455,3.07012987 L6.54545455,3.77142857 C6.85714286,3.58441558 7.21558442,3.49090909 7.54285714,3.49090909 C7.77662338,3.49090909 7.79220779,3.55324675 7.79220779,3.70909091 L7.79220779,3.91168831 C6.85714286,4.00519481 6.24935065,4.3012987 6.24935065,4.94025974 C6.24935065,5.53246753 6.54545455,5.7974026 7.30909091,5.7974026 C7.68311688,5.7974026 8.25974026,5.75064935 8.57142857,5.7038961 L8.57142857,3.84935065 C8.57142857,3.47532468 8.63376623,3.28831169 8.55584416,3.14805195 C8.41558442,2.91428571 8.18181818,2.78961039 7.71428571,2.78961039 Z M7.79220779,5.12727273 C7.63636364,5.15844156 7.54285714,5.17402597 7.4025974,5.17402597 C7.15324675,5.17402597 7.01298701,5.0961039 7.01298701,4.90909091 C7.01298701,4.67532468 7.32467532,4.58181818 7.79220779,4.51948052 L7.79220779,5.12727273 Z M10.5194805,2.78961039 C10.0675325,2.78961039 9.66233766,2.85194805 9.03896104,2.99220779 L9.03896104,5.76623377 L9.97402597,5.76623377 L9.97402597,3.6 C10.1298701,3.55324675 10.3012987,3.53766234 10.425974,3.53766234 C10.7532468,3.53766234 10.9090909,3.66233766 10.9090909,4.02077922 L10.9090909,5.76623377 L11.8441558,5.76623377 L11.8441558,3.97402597 C11.8441558,3.52207792 11.7506494,3.3038961 11.5636364,3.1012987 C11.361039,2.8987013 10.987013,2.78961039 10.5194805,2.78961039 Z M15.038961,3.58441558 L15.3662338,2.92987013 C14.9298701,2.83636364 14.5714286,2.80519481 14.1818182,2.80519481 C12.8415584,2.80519481 12.0935065,3.3974026 12.0935065,4.42597403 C12.0935065,5.26753247 12.6077922,5.7974026 13.4025974,5.7974026 C13.6363636,5.7974026 13.838961,5.76623377 13.9948052,5.67272727 L13.9948052,5.68831169 C13.9948052,6.26493506 13.7142857,6.51428571 13.1220779,6.51428571 C12.7792208,6.51428571 12.4363636,6.43636364 12.1246753,6.26493506 L12.1246753,7.10649351 C12.4363636,7.23116883 12.7636364,7.27792208 13.1220779,7.27792208 C13.8233766,7.27792208 14.3532468,7.05974026 14.6337662,6.60779221 C14.8363636,6.31168831 14.9298701,5.93766234 14.9298701,5.15844156 L14.9298701,4.90909091 L14.8987013,4.53506494 L14.8675325,4.05194805 L14.8051948,3.66233766 L14.8051948,3.56883117 C15.1168831,3.58441558 14.8051948,3.53766234 15.038961,3.58441558 L15.038961,3.58441558 Z M14.025974,4.92467532 L14.025974,4.98701299 C13.8701299,5.01818182 13.8077922,5.04935065 13.6831169,5.04935065 C13.2779221,5.04935065 13.0597403,4.78441558 13.0597403,4.33246753 C13.0597403,4.00519481 13.1688312,3.74025974 13.387013,3.61558442 C13.5272727,3.52207792 13.7298701,3.42857143 13.9168831,3.42857143 L14.025974,3.42857143 L14.025974,4.92467532 L14.025974,4.92467532 Z M16.8155844,2.78961039 C15.8805195,2.78961039 15.3038961,3.38181818 15.3038961,4.34805195 C15.3038961,5.26753247 15.8649351,5.84415584 16.7844156,5.84415584 C17.7038961,5.84415584 18.2961039,5.25194805 18.2961039,4.28571429 C18.2805195,3.35064935 17.7194805,2.78961039 16.8155844,2.78961039 Z M16.8,5.11168831 C16.4415584,5.11168831 16.238961,4.81558442 16.238961,4.31688312 C16.238961,3.81818182 16.4415584,3.52207792 16.8155844,3.52207792 C17.1584416,3.52207792 17.361039,3.81818182 17.361039,4.31688312 C17.3454545,4.81558442 17.1428571,5.11168831 16.8,5.11168831 L16.8,5.11168831 Z" id="Shape"></path>
                            </g>
                        </g>
                    </g>
                </g>
            </g>
        </g>
    </g>
</svg>