<?xml version="1.0" encoding="UTF-8"?>
<svg width="12px" height="13px" viewBox="0 0 12 13" version="1.1" xmlns="http://www.w3.org/2000/svg" xmlns:xlink="http://www.w3.org/1999/xlink">
    <!-- Generator: Sketch 61 (89581) - https://sketch.com -->
    <title>Github</title>
    <desc>Created with Sketch.</desc>
    <g id="Page-1" stroke="none" stroke-width="1" fill="none" fill-rule="evenodd">
        <g id="Resume-Letter" transform="translate(-503.000000, -471.000000)" fill="#2555AC" fill-rule="nonzero">
            <g id="Skills&amp;Tools" transform="translate(30.000000, 439.000000)">
                <g id="Skills" transform="translate(5.000000, 30.500000)">
                    <g id="Skill-Group6" transform="translate(468.000000, 0.000000)">
                        <g id="Github">
                            <g transform="translate(0.000000, 2.000000)" id="Path">
                                <path d="M5.92105263,0 C2.65021086,0 0,2.65021086 0,5.92105263 C0,8.53656957 1.69613487,10.7569643 4.04952187,11.5394995 C4.34634572,11.5934674 4.45428158,11.4122891 4.45428158,11.2542405 C4.45428158,11.1135385 4.44849918,10.7415449 4.44657187,10.2481238 C2.79862253,10.604698 2.45168586,9.45402434 2.45168586,9.45402434 C2.18184622,8.76978849 1.79443372,8.58668289 1.79443372,8.58668289 C1.25668174,8.22047171 1.83490954,8.22818141 1.83490954,8.22818141 C2.42855674,8.27058503 2.7408,8.83724803 2.7408,8.83724803 C3.26891447,9.74313849 4.12661891,9.48100855 4.46391859,9.33066908 C4.51788651,8.94711168 4.67208059,8.68690905 4.83976678,8.53849737 C3.52526201,8.3900852 2.1432977,7.88124474 2.1432977,5.61266447 C2.1432977,4.96504934 2.37458882,4.43693487 2.75236431,4.02253816 C2.69261398,3.87412648 2.48830707,3.27084178 2.81018734,2.45554095 C2.81018734,2.45554095 3.30746299,2.29749178 4.43886217,3.06267977 C4.91108141,2.9316148 5.41799457,2.86608257 5.92105263,2.86415526 C6.42411069,2.86608257 6.93102385,2.9316148 7.40324309,3.06267977 C8.53464227,2.29749178 9.02999062,2.45554095 9.02999062,2.45554095 C9.35379819,3.27084178 9.15141859,3.87412648 9.08974095,4.02253816 C9.46944375,4.43693487 9.69688026,4.96504934 9.69688026,5.61266447 C9.69688026,7.88702714 8.31298816,8.38623059 6.99462878,8.53464227 C7.20664589,8.71582056 7.39553339,9.07817664 7.39553339,9.62942023 C7.39553339,10.4215924 7.38975148,11.0595706 7.38975148,11.2542405 C7.38975148,11.4122891 7.49575954,11.597322 7.79643799,11.5394995 C10.1478977,10.755037 11.8421053,8.53656957 11.8421053,5.92105263 C11.8421053,2.65021086 9.19189441,0 5.92105263,0 Z"></path>
                            </g>
                        </g>
                    </g>
                </g>
            </g>
        </g>
    </g>
</svg>