<?xml version="1.0" encoding="UTF-8"?>
<svg width="12px" height="14px" viewBox="0 0 12 14" version="1.1" xmlns="http://www.w3.org/2000/svg" xmlns:xlink="http://www.w3.org/1999/xlink">
    <!-- Generator: Sketch 61 (89581) - https://sketch.com -->
    <title>graphql-icon</title>
    <desc>Created with Sketch.</desc>
    <g id="Page-1" stroke="none" stroke-width="1" fill="none" fill-rule="evenodd">
        <g id="Resume-Letter" transform="translate(-132.000000, -539.000000)" fill="#2555AC" fill-rule="nonzero">
            <g id="Skills&amp;Tools" transform="translate(30.000000, 439.000000)">
                <g id="Skills" transform="translate(5.000000, 30.500000)">
                    <g id="Skill-Group2" transform="translate(97.000000, 0.000000)">
                        <g id="GraphQL" transform="translate(0.000000, 69.000000)">
                            <g id="graphql-icon" transform="translate(0.000000, 1.000000)">
                                <path d="M5.97239908,0.000220697012 C6.62413204,0.000220697012 7.15246675,0.528554654 7.15246675,1.18028762 C7.15259622,1.29570004 7.13579505,1.40938335 7.1034363,1.5180173 L9.82673232,3.09022984 C9.90347044,3.00891996 9.99311472,2.93721088 10.0947986,2.87833043 C10.659909,2.55375998 11.3810885,2.74737713 11.7076523,3.31133796 C12.0322228,3.8764484 11.8386056,4.59762787 11.2746448,4.92419173 C11.1738152,4.9821031 11.068017,5.02351778 10.9603783,5.04927556 L10.9603587,8.19427396 C11.0667867,8.22008856 11.1713807,8.26123027 11.2711136,8.31851177 C11.8391877,8.64646753 12.0320769,9.36682257 11.7036798,9.93136553 L11.7041212,9.93136553 C11.3775573,10.4953264 10.6563778,10.6889435 10.0912674,10.3643731 C9.97907338,10.2994066 9.88153641,10.2188226 9.79982051,10.1269566 L7.09289467,11.6898031 C7.13207424,11.8078196 7.15295562,11.9331903 7.15290748,12.0619745 C7.15120844,12.7130527 6.62369862,13.2403653 5.97261978,13.2418207 C5.49519784,13.2418207 5.06479424,12.954205 4.88213404,12.5131076 C4.77666473,12.2584148 4.7657879,11.9815176 4.84043043,11.7279964 L2.1181583,10.1565652 C2.04228361,10.2361903 1.95394702,10.3064822 1.85397214,10.3643731 C1.30009989,10.6806871 0.601045966,10.5060688 0.266152561,9.97347917 L0.241118382,9.93136553 C-0.0834520607,9.3662551 0.110165088,8.64507563 0.674125919,8.31851177 C0.773858879,8.26123027 0.87845286,8.22008856 0.984880816,8.19427396 L0.984861208,5.04883416 C0.877222552,5.02307638 0.771424402,4.9816617 0.670594767,4.92375033 C0.106369942,4.59717364 -0.0872827388,3.87566442 0.23758723,3.31045518 C0.564151089,2.74649434 1.28533056,2.5528772 1.85044099,2.87744764 C1.95186849,2.93617965 2.04131705,3.0076757 2.11792661,3.08873229 L4.84104362,1.5173915 C4.80885099,1.40894096 4.79215863,1.29547273 4.79233083,1.18028762 C4.79233083,0.528554654 5.32066612,0.000220697012 5.97239908,0.000220697012 Z M9.53536234,9.6232962 L2.40987721,9.6232962 L2.39741268,9.66984758 L2.39741268,9.66984758 L5.12230904,11.242965 L5.13818658,11.2267876 L5.13818658,11.2267876 C5.475838,10.8892625 5.98357313,10.7883911 6.42460222,10.9712162 C6.58817767,11.0390252 6.73062695,11.1409065 6.84511019,11.2666165 L9.5572825,9.70090865 C9.54910062,9.67529142 9.54178956,9.64940443 9.53536234,9.6232962 Z M5.97261978,2.36013384 L5.97261978,2.36057656 C5.86019969,2.36074463 5.74941504,2.34484809 5.64333461,2.31415531 L2.07896759,8.48713862 C2.15867674,8.56305684 2.22903934,8.65145898 2.28697968,8.7515193 C2.34418707,8.85112324 2.38529641,8.95557563 2.41111723,9.06186116 L9.53412233,9.06186116 C9.55994314,8.95557563 9.60105248,8.85112324 9.65825987,8.7515193 C9.71629918,8.65128808 9.7868032,8.5627549 9.86668046,8.48674974 L6.30193996,2.31357487 C6.19585443,2.34431737 6.08505766,2.36026025 5.97261978,2.36013384 Z M5.12418588,2.00132415 L2.39513365,3.57632811 C2.47448284,3.85430302 2.45247959,4.16088809 2.31293044,4.43576637 L2.28344853,4.49074279 C2.11641035,4.77921008 1.84612705,4.97078263 1.54629496,5.04567497 L1.54629496,8.19571602 L1.59266146,8.2081388 L1.59266146,8.2081388 L5.15695097,2.03439178 L5.13751195,2.01539545 L5.13751195,2.01539545 L5.12418588,2.00132415 Z M6.80728563,2.01495347 L6.78763415,2.03318621 L10.3533041,8.20792869 L10.3988326,8.19573956 L10.3988326,8.19573956 L10.3988326,5.0460884 C10.0990452,4.97117633 9.82880841,4.77961557 9.66179103,4.49118419 C9.49623703,4.20293769 9.4655012,3.87408633 9.54996369,3.5777095 L6.81993198,2.00211248 L6.80728563,2.01495347 L6.80728563,2.01495347 Z" id="Shape"></path>
                            </g>
                        </g>
                    </g>
                </g>
            </g>
        </g>
    </g>
</svg>