<?xml version="1.0" encoding="UTF-8"?>
<svg width="12px" height="14px" viewBox="0 0 12 14" version="1.1" xmlns="http://www.w3.org/2000/svg" xmlns:xlink="http://www.w3.org/1999/xlink">
    <!-- Generator: Sketch 61 (89581) - https://sketch.com -->
    <title>HTML5</title>
    <desc>Created with Sketch.</desc>
    <g id="Page-1" stroke="none" stroke-width="1" fill="none" fill-rule="evenodd">
        <g id="Resume-Letter" transform="translate(-226.000000, -516.000000)" fill="#2555AC" fill-rule="nonzero">
            <g id="Skills&amp;Tools" transform="translate(30.000000, 439.000000)">
                <g id="Skills" transform="translate(5.000000, 30.500000)">
                    <g id="Skill-Group3" transform="translate(191.000000, 0.000000)">
                        <g id="HTML" transform="translate(0.000000, 46.000000)">
                            <g id="HTML5" transform="translate(0.000000, 1.000000)">
                                <path d="M11.8421053,0 L0,0 L1.31578947,11.8421053 L5.92105263,13.1578947 L10.5263158,11.8421053 L11.8421053,0 Z M9.09488092,4.00133618 L4.05787434,4.00133618 L4.17865987,5.43534145 L8.97409539,5.43534145 L8.61430921,9.67053882 L5.92105263,10.5288855 L5.89535395,10.5186059 L3.23293618,9.67053882 L3.08645132,7.94356513 L4.39196118,7.94356513 L4.44849934,8.61430921 L5.93647237,8.94325658 L7.39617632,8.61430921 L7.55294013,6.80252895 L2.98879539,6.80252895 L2.63671908,2.63157895 L9.21309605,2.63157895 L9.09488092,4.00133618 Z" id="Shape"></path>
                            </g>
                        </g>
                    </g>
                </g>
            </g>
        </g>
    </g>
</svg>