<?xml version="1.0" encoding="UTF-8"?>
<svg width="12px" height="17px" viewBox="0 0 12 17" version="1.1" xmlns="http://www.w3.org/2000/svg" xmlns:xlink="http://www.w3.org/1999/xlink">
    <!-- Generator: Sketch 61 (89581) - https://sketch.com -->
    <title>java</title>
    <desc>Created with Sketch.</desc>
    <g id="Page-1" stroke="none" stroke-width="1" fill="none" fill-rule="evenodd">
        <g id="Resume-Letter" transform="translate(-315.000000, -515.000000)" fill="#2555AC" fill-rule="nonzero">
            <g id="Skills&amp;Tools" transform="translate(30.000000, 439.000000)">
                <g id="Skills" transform="translate(5.000000, 30.500000)">
                    <g id="Skill-Group4" transform="translate(280.000000, 0.000000)">
                        <g id="Java" transform="translate(0.000000, 46.000000)">
                            <g id="java">
                                <path d="M6.92687247,0 C7.75952065,2.00926761 3.92364656,3.24044818 3.56781377,4.91523279 C3.24282024,6.45242915 5.84276964,8.25531377 5.8451417,8.25531377 C5.45135405,7.61955972 5.15957126,7.08343907 4.76341093,6.09185223 C4.09444615,4.41706761 8.85074028,2.90596518 6.92687247,0 Z M9.45091093,2.78972672 C9.45091093,2.78972672 6.11082996,3.00559858 5.94003036,5.23785425 C5.86411943,6.23181316 6.82249494,6.75370081 6.85096154,7.47722672 C6.87231134,8.0679085 6.26265182,8.55895749 6.26265182,8.55895749 C6.26265182,8.55895749 7.34912733,8.3596913 7.68598178,7.45824899 C8.05841964,6.45717389 6.9672,5.77397551 7.07869433,4.97216599 C7.18544393,4.20593988 9.45091093,2.78972672 9.45091093,2.78972672 Z M10.2669534,7.93269231 C9.91586538,7.91608664 9.51970506,8.04893077 9.16624494,8.31224696 C9.85893219,8.15568097 10.4567308,8.59928502 10.4567308,9.10931174 C10.4567308,10.2527204 8.86260121,11.3297065 8.86260121,11.3297065 C8.86260121,11.3297065 11.3297065,11.0474126 11.3297065,9.16624494 C11.3297065,8.39052996 10.850519,7.96115891 10.2669534,7.93269231 Z M3.70065789,7.95167004 C2.83717105,7.9825087 1.11968623,8.12721437 1.11968623,8.80566802 C1.11968623,9.74981053 5.13822146,9.82334879 8.00860324,9.24215587 C8.00860324,9.24215587 8.77245729,8.68705749 8.97646761,8.48304656 C7.0953,8.88157895 2.80870445,8.94325688 2.80870445,8.59691296 C2.80870445,8.27903623 4.19407895,7.95167004 4.19407895,7.95167004 C4.19407895,7.95167004 3.98769595,7.94218117 3.70065789,7.95167004 Z M3.45394737,9.69762146 C2.98187611,9.69762146 2.27732794,10.072432 2.27732794,10.437753 C2.27732794,11.1731405 5.82141984,11.7377277 8.44509109,10.6654858 L7.53415992,10.0961538 C5.75499777,10.6892083 2.48371093,10.4923142 3.45394737,9.69762146 Z M3.89043522,11.3486842 C3.24519231,11.3486842 2.82768219,11.7638223 2.82768219,12.0698381 C2.82768219,13.0116079 6.67067308,13.1041245 8.19838057,12.145749 L7.23051619,11.5005061 C6.08948016,12.0010439 3.23095931,12.0745828 3.89043522,11.3486842 Z M1.72697368,12.2026822 C0.676081579,12.1813324 0,12.6676366 0,13.0756579 C0,15.2462362 10.7793522,15.1418587 10.7793522,12.923836 C10.7793522,12.5561423 10.35947,12.3805986 10.2100202,12.2975709 C11.0901128,14.4183328 1.40435223,14.2522773 1.40435223,12.999747 C1.40435223,12.715081 2.11127308,12.430415 2.77074899,12.5632591 L2.201417,12.2406377 C2.03773421,12.2145431 1.87642348,12.2050543 1.72697368,12.2026822 Z M11.8990385,13.6639676 C10.2622093,15.279447 6.10845789,15.8582678 1.93572874,14.8595648 C6.10845789,16.6387275 11.8800607,15.6495128 11.8990385,13.6639676 Z" id="Shape"></path>
                            </g>
                        </g>
                    </g>
                </g>
            </g>
        </g>
    </g>
</svg>