<?xml version="1.0" encoding="UTF-8"?>
<svg width="20px" height="21px" viewBox="0 0 20 21" version="1.1" xmlns="http://www.w3.org/2000/svg" xmlns:xlink="http://www.w3.org/1999/xlink">
    <!-- Generator: Sketch 61 (89581) - https://sketch.com -->
    <title>javascript</title>
    <desc>Created with Sketch.</desc>
    <g id="Page-1" stroke="none" stroke-width="1" fill="none" fill-rule="evenodd">
        <g id="Artboard" transform="translate(-155.000000, -632.000000)" fill="#2555AC" fill-rule="nonzero">
            <g id="Skills" transform="translate(155.000000, 630.000000)">
                <g id="Skill-Group1" transform="translate(0.000000, 2.000000)">
                    <g id="JavaScript">
                        <g id="javascript" transform="translate(0.000000, 0.357143)">
                            <path d="M17.6426426,0 L1.76426426,0 C0.789508258,0 0,0.812065637 0,1.81467181 L0,18.1467181 C0,19.1493243 0.789508258,19.96139 1.76426426,19.96139 L17.6426426,19.96139 C18.6173986,19.96139 19.4069069,19.1493243 19.4069069,18.1467181 L19.4069069,1.81467181 C19.4069069,0.812065637 18.6173986,0 17.6426426,0 Z M9.70345345,14.8621622 C9.70345345,16.4744981 8.74192943,17.3782046 7.14527027,17.3782046 C5.56801802,17.3782046 4.56326952,16.4300386 4.56326952,14.8966409 L6.27195946,14.8966409 C6.27637012,15.4655405 6.60628754,15.8248456 7.11615991,15.8248456 C7.6401464,15.8248456 7.92154655,15.4855019 7.92154655,14.8467375 L7.92154655,9.97888031 L9.70345345,9.97888031 L9.70345345,14.8621622 Z M14.5384197,17.3782046 C12.7662162,17.3782046 11.6512012,16.5198649 11.6212087,15.1316409 L13.3201952,15.1316409 C13.3634197,15.6560811 13.8724099,15.9899807 14.6107545,15.9899807 C15.2758821,15.9899807 15.7328266,15.6606178 15.7328266,15.1860811 C15.7328266,14.7868533 15.4267267,14.5718147 14.6257508,14.4075869 L13.7039227,14.2179537 C12.4221847,13.9684363 11.7623498,13.2498263 11.7623498,12.1165637 C11.7623498,10.7083784 12.8597222,9.78471042 14.5481231,9.78471042 C16.1888889,9.78471042 17.3241929,10.6983977 17.3533033,12.0312741 L15.7081269,12.0312741 C15.6693131,11.5222587 15.1982545,11.1674903 14.5710586,11.1674903 C13.9456269,11.1674903 13.5336712,11.4723552 13.5336712,11.9514286 C13.5336712,12.3461197 13.8441817,12.5756757 14.5816441,12.7253861 L15.4831832,12.9050386 C16.8672485,13.1799614 17.48827,13.8232625 17.48827,14.9665058 C17.4891517,16.4699614 16.3732545,17.3782046 14.5384197,17.3782046 Z" id="Shape"></path>
                        </g>
                    </g>
                </g>
            </g>
        </g>
    </g>
</svg>