<?xml version="1.0" encoding="UTF-8"?>
<svg width="25px" height="21px" viewBox="0 0 25 21" version="1.1" xmlns="http://www.w3.org/2000/svg" xmlns:xlink="http://www.w3.org/1999/xlink">
    <!-- Generator: Sketch 61 (89581) - https://sketch.com -->
    <title>Node</title>
    <desc>Created with Sketch.</desc>
    <g id="Page-1" stroke="none" stroke-width="1" fill="none" fill-rule="evenodd">
        <g id="Artboard" transform="translate(-155.000000, -748.000000)" fill="#2555AC" fill-rule="nonzero">
            <g id="Skills" transform="translate(155.000000, 630.000000)">
                <g id="Skill-Group1" transform="translate(0.000000, 2.000000)">
                    <g id="Node" transform="translate(0.000000, 115.821429)">
                        <g transform="translate(0.000000, 0.357143)" id="Shape">
                            <path d="M16.8201732,0 C16.696198,0 16.5826613,0.127701247 16.5826613,0.305372618 L16.5826613,5.88536416 L15.5986825,5.1477102 C15.5370898,5.10100902 15.4676747,5.0783077 15.3981855,5.0783077 C15.3286962,5.0783077 15.2592812,5.10100801 15.1976885,5.1477102 L12.8333634,6.92045828 C12.7101779,7.01183213 12.6344086,7.18092146 12.6344086,7.3626539 L12.6344086,10.9121157 C12.6344086,11.0948634 12.7101779,11.2629375 12.8333634,11.3543113 L15.1976885,13.1270594 C15.2592812,13.1737606 15.3286962,13.1964619 15.3981855,13.1964619 C15.4676747,13.1964619 15.5370898,13.1737616 15.5986825,13.1270594 L17.9630075,11.3543113 C18.086193,11.2629375 18.1619624,11.0938481 18.1619624,10.9121157 L18.1619624,9.13738479 L18.1619624,7.3626539 L18.1619624,1.24925188 C18.1619624,1.06853471 18.0869085,0.90239604 17.9660919,0.811022193 L16.9373873,0.0416417022 C16.8986944,0.0132142828 16.8596557,0 16.8201732,0 Z M9.08098118,5.0783077 C9.01168935,5.0783077 8.94247174,5.10151665 8.88048417,5.1477102 L6.5161592,6.92045828 C6.39297372,7.01183213 6.3172043,7.18092146 6.3172043,7.3626539 L6.3172043,10.9121157 C6.3172043,11.0948634 6.39297372,11.2629375 6.5161592,11.3543113 L8.88048417,13.1270594 C9.00445931,13.2194485 9.15750306,13.2194485 9.28147819,13.1270594 L11.6458032,11.3543113 C11.7689887,11.2629375 11.8447581,11.0938481 11.8447581,10.9121157 L11.8447581,7.3626539 C11.8447581,7.1799062 11.7689887,7.01183213 11.6458032,6.92045828 L9.28147819,5.1477102 C9.21949063,5.10151564 9.15027302,5.0783077 9.08098118,5.0783077 Z M21.7153898,5.0783077 C21.6459005,5.0783077 21.5764855,5.10100801 21.5148928,5.1477102 L19.1505677,6.92045828 C19.0273822,7.01183213 18.9516129,7.18092146 18.9516129,7.3626539 L18.9516129,10.9121157 C18.9516129,11.0948634 19.0273822,11.2629375 19.1505677,11.3543113 L21.4439474,13.1369735 C21.5671329,13.2334236 21.7217196,13.2343435 21.8464844,13.1409391 L22.9738953,12.29819 C23.0907636,12.2118924 23.0915533,11.9938958 22.9738953,11.9055677 L20.530914,10.0554859 L20.530914,8.23316442 L21.7153898,7.34679038 L22.8998656,8.23316442 L22.8998656,9.50224564 C22.8998656,9.67179489 23.0107128,9.69790649 23.0849399,9.64105166 C23.3834278,9.41566283 24.2832962,8.74476254 24.2832962,8.74476254 C24.4041128,8.65440395 24.4791667,8.48725073 24.4791667,8.30653356 L24.4791667,7.3626539 C24.4791667,7.1799062 24.4033973,7.01183213 24.2802118,6.92045828 L21.9158868,5.1477102 C21.8535044,5.10100902 21.784879,5.0783077 21.7153898,5.0783077 Z M2.76377688,5.08029051 C2.69428763,5.08029051 2.62487238,5.10299183 2.56327971,5.14969402 L0.198954917,6.92045828 C0.0757694367,7.01284739 0,7.18188901 0,7.36463671 L0,11.8956536 C0,12.1169814 0.186221802,12.2541853 0.334676103,12.1435214 L1.38343071,11.3582769 C1.50424724,11.2669031 1.57930108,11.1007641 1.57930108,10.9200469 L1.57930108,8.23713005 L2.76377688,7.34877319 L3.94825269,8.23713005 L3.94825269,10.9200469 C3.94825269,11.1007641 4.02330652,11.2669031 4.14412306,11.3582769 L5.19287768,12.1435214 C5.34133198,12.2552006 5.52755376,12.1169814 5.52755376,11.8956536 L5.52755376,7.36463671 C5.52755376,7.18188901 5.45178435,7.01284739 5.32859886,6.92045828 L2.96427405,5.14969402 C2.90268139,5.10299183 2.83326613,5.08029051 2.76377688,5.08029051 Z M15.3981855,7.34679038 L16.5826613,8.23514724 L16.5826613,9.13738479 L16.5826613,10.0396224 L15.3981855,10.9279792 L14.2137097,10.0396224 L14.2137097,8.23514724 L15.3981855,7.34679038 Z M21.7153898,8.12608544 L21.038326,8.63371793 L21.038326,9.64700009 L21.7153898,10.1526498 L22.3924535,9.64700009 L22.3924535,8.63371793 L21.7153898,8.12608544 Z M12.1655536,12.1811969 C12.0843183,12.1811969 12.0021946,12.2067532 11.9311261,12.2585317 L9.71023395,13.9083373 C9.56414861,14.0118943 9.47580645,14.2156773 9.47580645,14.4278676 L9.47580645,17.7235122 C9.47580645,17.9357026 9.56809686,18.1354245 9.71023395,18.2430426 L10.2947601,18.6713575 C10.5750861,18.8490288 10.6781236,18.8498218 10.8052574,18.8498218 C11.2237721,18.8498218 11.4622711,18.5280305 11.4622711,17.9594821 L11.4622711,14.7034958 C11.4622711,14.6537479 11.4322399,14.6182298 11.3974953,14.6182298 L11.116799,14.6182298 C11.0781061,14.6182298 11.050481,14.6588242 11.050481,14.7034958 L11.050481,17.9594821 C11.050481,18.2061915 10.8477129,18.4591986 10.5168493,18.2470082 L9.90918878,17.7968813 C9.88944751,17.7816523 9.87525828,17.750972 9.87525828,17.7215294 L9.87525828,14.4258838 C9.87525828,14.3964411 9.88628891,14.3617952 9.90918878,14.3465662 L12.1300809,12.7007273 C12.1537704,12.6854983 12.1805325,12.6854983 12.1994841,12.7007273 L14.4219184,14.3465662 C14.4448183,14.3617952 14.4558489,14.3913648 14.4558489,14.4258838 L14.4558489,17.7215294 C14.4558489,17.7560484 14.44087,17.785618 14.4219184,17.8008469 L12.1994841,19.4526353 C12.1797428,19.4678643 12.1490325,19.4678643 12.1300809,19.4526353 L11.5625196,19.018372 C11.5475162,19.0082193 11.5235432,19.0022699 11.5085399,19.0124225 C11.3513994,19.1312096 11.3199492,19.1467553 11.1738639,19.210717 C11.135171,19.225946 11.0825724,19.2564516 11.1939131,19.3356423 L11.9311261,19.8987966 C12.0045636,19.9485446 12.0850092,19.9781142 12.1655536,19.9781142 C12.2500462,19.9781142 12.3321454,19.94864 12.3968967,19.894831 L14.6177889,18.2430426 C14.7638742,18.1394855 14.8522164,17.9357026 14.8522164,17.7235122 L14.8522164,14.4278676 C14.8522164,14.2156773 14.759926,14.0169706 14.6177889,13.9083373 L12.3968967,12.2585317 C12.3278023,12.2067532 12.2467889,12.1811969 12.1655536,12.1811969 Z M15.6295286,13.7021116 C15.4028989,13.7021116 15.2038572,13.937716 15.2038572,14.2494023 C15.2038572,14.550936 15.3950024,14.7986769 15.6295286,14.7986769 C15.8640548,14.7986769 16.0551992,14.550936 16.0551992,14.2494023 C16.0551992,13.937716 15.8601066,13.6970352 15.6295286,13.7021116 Z M15.6249013,13.7893604 C15.8254725,13.7893604 15.987339,13.9925403 15.987339,14.2494023 C15.987339,14.501188 15.8246828,14.7093021 15.6249013,14.7153937 C15.4282783,14.7153937 15.2686338,14.5062644 15.2686338,14.2494023 C15.2686338,13.9925403 15.4290679,13.7893604 15.6249013,13.7893604 Z M15.4691308,13.9380815 L15.4691308,14.5547758 L15.5601254,14.5547758 L15.5601254,14.3088908 L15.6449513,14.3088908 C15.6796959,14.3088908 15.6879501,14.3279107 15.6958466,14.3624298 C15.6958466,14.3675061 15.7104062,14.5273159 15.7143545,14.5567586 L15.8130608,14.5567586 C15.8020057,14.5273159 15.7938746,14.4429372 15.7899264,14.392174 C15.7788713,14.3129833 15.7752681,14.2584443 15.7097271,14.253368 C15.7444717,14.23814 15.8022647,14.2143919 15.8022647,14.1006823 C15.8022647,13.9372246 15.6917997,13.9380815 15.6341552,13.9380815 L15.4691308,13.9380815 Z M15.5601254,14.0372282 L15.6372395,14.0372282 C15.6609291,14.0372282 15.7066427,14.0362444 15.7066427,14.1205114 C15.7066427,14.1550304 15.6949954,14.2107593 15.632613,14.2097441 L15.5601254,14.2097441 L15.5601254,14.0372282 Z M12.7608759,14.5408951 C12.1267865,14.5408951 11.7506783,14.8883695 11.7506783,15.4609789 C11.7506783,16.0884127 12.1274158,16.2562644 12.7346571,16.3354551 C13.4611356,16.4288595 13.5181389,16.563176 13.5181389,16.7459237 C13.5181389,17.0667474 13.3178385,17.2000162 12.8487861,17.2000162 C12.2604964,17.2000162 12.1310806,17.0125099 12.0884395,16.6368619 C12.0844912,16.5972666 12.0568653,16.5674584 12.0221207,16.5674584 L11.7337135,16.5674584 C11.6989688,16.5674584 11.6689376,16.6029774 11.6689376,16.6527254 C11.6689376,17.1319305 11.8720997,17.7056658 12.8441595,17.7056658 C13.557214,17.7046506 13.9607751,17.3494662 13.9607751,16.7260935 C13.9607751,16.1088124 13.6374993,15.9446258 12.9536619,15.8258398 C12.2619281,15.7070538 12.1933145,15.6472953 12.1933145,15.439166 C12.1933145,15.2665709 12.249972,15.0405953 12.7608759,15.0405953 C13.2180835,15.0405953 13.3885004,15.1691532 13.4579896,15.5640913 C13.4658861,15.6036866 13.4873425,15.6275453 13.5181389,15.6275453 L13.8065461,15.6275453 C13.8254977,15.6275453 13.8417598,15.6179643 13.8528149,15.6037506 C13.8646597,15.5844605 13.8721858,15.5646629 13.8682376,15.5402965 C13.8224378,14.8580385 13.472351,14.5408951 12.7608759,14.5408951 Z"></path>
                        </g>
                    </g>
                </g>
            </g>
        </g>
    </g>
</svg>