<?xml version="1.0" encoding="UTF-8"?>
<svg width="14px" height="12px" viewBox="0 0 14 12" version="1.1" xmlns="http://www.w3.org/2000/svg" xmlns:xlink="http://www.w3.org/1999/xlink">
    <!-- Generator: Sketch 61 (89581) - https://sketch.com -->
    <title>PowerShell</title>
    <desc>Created with Sketch.</desc>
    <g id="Page-1" stroke="none" stroke-width="1" fill="none" fill-rule="evenodd">
        <g id="Resume-Letter" transform="translate(-503.000000, -494.000000)" fill="#2555AC" fill-rule="nonzero">
            <g id="Skills&amp;Tools" transform="translate(30.000000, 439.000000)">
                <g id="Skills" transform="translate(5.000000, 30.500000)">
                    <g id="Skill-Group6" transform="translate(468.000000, 0.000000)">
                        <g id="PowerShell" transform="translate(0.000000, 23.000000)">
                            <g transform="translate(0.000000, 2.000000)" id="Shape">
                                <path d="M3.01694004,0 C2.78336893,0 2.52258945,0.0351015199 2.30421585,0.212652045 C2.08584225,0.390202521 1.99773403,0.636401222 1.94688276,0.867115355 C1.30851895,3.782012 0.670383935,6.69716946 0.033014446,9.61206591 L0.033014446,9.61303736 C-0.0338781108,9.92177216 -0.00296048295,10.2590111 0.191289716,10.527732 C0.385539815,10.7964306 0.725416811,10.9375 1.05646307,10.9375 L10.9375,10.9375 C11.193266,10.9375 11.4709666,10.8480134 11.6570214,10.6646452 C11.8430763,10.481277 11.9217979,10.2587416 11.9677459,10.0490225 L11.9677459,10.0480516 C12.6086093,7.11919389 13.2480827,4.18979482 13.8864692,1.26037595 C13.9518685,0.96024593 13.9303853,0.618674915 13.7194546,0.356362095 C13.5085244,0.0940492259 13.1795055,0 12.8746724,0 L3.01694004,0 Z M3.01694004,0.994318182 L12.8746724,0.994318182 C12.9060596,0.994318182 12.9075227,0.996462479 12.9222526,0.998202237 C12.9208376,1.0134864 12.9225121,1.0163305 12.9154554,1.04869496 C12.2771374,3.97779872 11.6365733,6.9077223 10.9957611,9.83637017 L10.996732,9.83539922 C10.9755342,9.93215036 10.9576543,9.9484517 10.9627462,9.94415277 C10.9568425,9.94383707 10.959116,9.94318182 10.9375,9.94318182 L1.05646307,9.94318182 C0.962935462,9.94318182 0.988421477,9.93293835 0.997231236,9.94512372 C1.0059708,9.95721463 0.981393686,9.93139219 1.0040283,9.82471825 L1.0040283,9.8237473 C1.64130725,6.90929134 2.27962353,3.99522067 2.91789661,1.0807384 C2.92894786,1.03059852 2.93602322,1.01595783 2.94217199,0.999173239 C2.95863581,0.997168246 2.97044388,0.994318182 3.01694004,0.994318182 Z M4.73951854,1.48370916 C4.43615747,1.4741243 4.157246,1.64933211 4.03419564,1.92678195 C3.91114528,2.2042318 3.96850276,2.52857652 4.17924361,2.74699837 L6.58735795,5.31727159 L2.79069378,8.0992267 C2.56573117,8.25287901 2.44244491,8.51696631 2.46910701,8.78808684 C2.4957691,9.05920736 2.66813702,9.29421993 2.91872115,9.40110678 C3.16930529,9.50799364 3.45823224,9.46974676 3.6723744,9.30134148 L8.14680632,6.02319872 C8.31897732,5.89697874 8.42880601,5.70302982 8.44848519,5.49045732 C8.46816437,5.27788483 8.39580722,5.06706981 8.24973366,4.91138793 L5.26677912,1.72743365 C5.13118442,1.57827655 4.94098702,1.49035842 4.73951854,1.48370916 Z M6.71164773,7.95454545 C6.44270759,7.95074197 6.19255296,8.09204124 6.05697293,8.324337 C5.92139291,8.55663276 5.92139291,8.84393542 6.05697293,9.07623118 C6.19255296,9.30852695 6.44270759,9.44982621 6.71164773,9.44602273 L8.70028409,9.44602273 C8.96922423,9.44982621 9.21937886,9.30852695 9.35495888,9.07623118 C9.49053891,8.84393542 9.49053891,8.55663276 9.35495888,8.324337 C9.21937886,8.09204124 8.96922423,7.95074197 8.70028409,7.95454545 L6.71164773,7.95454545 Z"></path>
                            </g>
                        </g>
                    </g>
                </g>
            </g>
        </g>
    </g>
</svg>