<?xml version="1.0" encoding="UTF-8"?>
<svg width="12px" height="13px" viewBox="0 0 12 13" version="1.1" xmlns="http://www.w3.org/2000/svg" xmlns:xlink="http://www.w3.org/1999/xlink">
    <!-- Generator: Sketch 61 (89581) - https://sketch.com -->
    <title>python</title>
    <desc>Created with Sketch.</desc>
    <g id="Page-1" stroke="none" stroke-width="1" fill="none" fill-rule="evenodd">
        <g id="Resume-Letter" transform="translate(-226.000000, -470.000000)" fill="#2555AC" fill-rule="nonzero">
            <g id="Skills&amp;Tools" transform="translate(30.000000, 439.000000)">
                <g id="Skills" transform="translate(5.000000, 30.500000)">
                    <g id="Skill-Group3" transform="translate(191.000000, 0.000000)">
                        <g id="Python">
                            <g id="python" transform="translate(0.000000, 1.000000)">
                                <path d="M6.18026692,5.7410539e-05 C5.69016636,0.00199633401 5.20945458,0.048941204 4.79822056,0.120296618 C3.58705233,0.332485681 3.37110747,0.77564185 3.37110747,1.59247643 L3.37110747,2.85434485 L6.25537813,2.85434485 L6.25537813,3.36510111 L2.00408335,3.36510111 C1.17222653,3.36510111 0.430503637,3.86646859 0.201414191,4.80723644 C-0.0614750621,5.88508262 -0.0727419847,6.54981663 0.201414191,7.67648486 C0.406092132,8.51397515 0.901826152,9.11862019 1.73368298,9.11862019 L2.87537345,9.11862019 L2.87537345,7.54128467 C2.87537345,6.60615029 3.69220803,5.73861551 4.66302037,5.73861551 L7.1867572,5.73861551 C7.98293608,5.73861551 8.62889253,5.0870256 8.62889253,4.29648018 L8.62889253,1.59247643 C8.62889253,0.82446438 7.96415852,0.249863344 7.1867572,0.120296618 C6.69477898,0.0395519416 6.67036747,-0.00175898639 6.18026692,5.7410539e-05 Z M4.55786467,1.1267869 C4.85267607,1.1267869 5.09866542,1.36902045 5.09866542,1.66758765 C5.09866542,1.96427719 4.85267607,2.2083884 4.55786467,2.2083884 C4.26117561,2.2083884 4.01706392,1.96427719 4.01706392,1.66758765 C4.01706392,1.36902045 4.26117561,1.1267869 4.55786467,1.1267869 Z M9.12462655,2.86936709 L9.12462655,4.44670261 C9.12462655,5.38183748 8.30779197,6.24937177 7.33697963,6.24937177 L4.8132428,6.24937177 C4.01706392,6.24937177 3.37110747,6.90096169 3.37110747,7.6915071 L3.37110747,10.3955108 C3.37110747,11.1635229 4.03584196,11.7400016 4.8132428,11.8676907 C5.3052215,11.9484353 5.32963253,11.9916244 5.81973308,11.9878686 C6.30983364,11.985991 6.79054542,11.9390466 7.20177944,11.8676907 C8.41294767,11.6573793 8.62889253,11.2123454 8.62889253,10.3955108 L8.62889253,9.13364244 L5.74462187,9.13364244 L5.74462187,8.62288617 L9.99591665,8.62288617 C10.8277735,8.62288617 11.5694968,8.12151869 11.7985858,7.18075084 C12.0614751,6.10290514 12.072742,5.43817065 11.7985858,4.31150242 C11.5939079,3.47401261 11.0981738,2.86936709 10.266317,2.86936709 L9.12462655,2.86936709 Z M7.44213533,9.77959889 C7.73882487,9.77959889 7.98293608,10.0237106 7.98293608,10.3203996 C7.98293608,10.6189668 7.73882487,10.8612004 7.44213533,10.8612004 C7.14732393,10.8612004 6.90133458,10.6189668 6.90133458,10.3203996 C6.90133458,10.0237106 7.14732393,9.77959889 7.44213533,9.77959889 Z" id="Shape"></path>
                            </g>
                        </g>
                    </g>
                </g>
            </g>
        </g>
    </g>
</svg>