<?xml version="1.0" encoding="UTF-8"?>
<svg width="20px" height="20px" viewBox="0 0 20 20" version="1.1" xmlns="http://www.w3.org/2000/svg" xmlns:xlink="http://www.w3.org/1999/xlink">
    <!-- Generator: Sketch 61 (89581) - https://sketch.com -->
    <title>React</title>
    <desc>Created with Sketch.</desc>
    <g id="Page-1" stroke="none" stroke-width="1" fill="none" fill-rule="evenodd">
        <g id="Artboard" transform="translate(-155.000000, -709.000000)" fill="#2555AC" fill-rule="nonzero">
            <g id="Skills" transform="translate(155.000000, 630.000000)">
                <g id="Skill-Group1" transform="translate(0.000000, 2.000000)">
                    <g id="React" transform="translate(0.000000, 77.214286)">
                        <g transform="translate(0.000000, 0.357143)" id="Shape">
                            <path d="M6.26641208,0.160471959 C5.76785224,0.160471959 5.30545139,0.281312581 4.89583333,0.53663213 C3.61567875,1.3368604 3.12840902,3.28694871 3.38660344,5.71487312 C1.31591889,6.68675096 0,8.11780731 0,9.71804511 C0,11.3182829 1.31591889,12.7493393 3.38660344,13.7212171 C3.12854235,16.1490463 3.61567875,18.09923 4.89583333,18.899458 C5.30463542,19.1547776 5.76703627,19.2756179 6.26641208,19.2756179 C7.32931872,19.2756179 8.55779427,18.6980392 9.79166667,17.7071343 C11.0256468,18.6980392 12.255609,19.2756179 13.3185157,19.2756179 C13.8170747,19.2756179 14.2794755,19.1547776 14.6890936,18.899458 C15.9692406,18.0992344 16.4565082,16.1491223 16.1983232,13.7212171 C18.2682285,12.749349 19.5833333,11.3179357 19.5833333,9.71804511 C19.5833333,8.11780731 18.2674141,6.68675096 16.1967296,5.71487312 C16.4547914,3.28704377 15.9676543,1.3368604 14.6875,0.53663213 C14.2786979,0.280429122 13.8162962,0.160471959 13.3169213,0.160471959 C12.2540146,0.160471959 11.0255391,0.738050983 9.79166667,1.72895614 C8.55772328,0.738050983 7.32895071,0.160471959 6.26641208,0.160471959 Z M6.26641208,1.70652459 C6.9042029,1.70652459 7.74762361,2.07369707 8.66333049,2.75390625 C8.12493733,3.30402199 7.5976422,3.92956407 7.09035227,4.62607934 C6.2675471,4.7538173 5.49177636,4.94002759 4.77311878,5.17306454 C4.76925915,5.11910412 4.76011887,5.06248379 4.75718178,5.00914153 C4.66987276,3.43658514 4.98885417,2.26434595 5.60980903,1.87562414 C5.79340278,1.76077452 6.00774889,1.70652459 6.26641208,1.70652459 Z M13.3169212,1.70652459 C13.5747685,1.70652459 13.7899306,1.76077452 13.9735243,1.87562414 C14.5944792,2.26346249 14.9134607,3.43658514 14.8261516,5.00914153 C14.8231921,5.06248379 14.814094,5.11910412 14.8102149,5.17306454 C14.0911059,4.93988129 13.3147646,4.75382604 12.4913875,4.62607934 C11.9841041,3.9296609 11.4583846,3.30395803 10.9200028,2.75390625 C11.8356461,2.07381068 12.6794601,1.70652459 13.3169212,1.70652459 Z M9.79166667,3.73571867 C10.0128604,3.95369884 10.2325087,4.18409063 10.4546441,4.43627381 C10.2345095,4.42826756 10.0155474,4.41729323 9.79166667,4.41729323 C9.56832365,4.41729323 9.34989767,4.42830572 9.13028283,4.43627381 C9.35222156,4.1843524 9.57068017,3.9534922 9.79166667,3.73571867 Z M9.79166667,5.96334586 C10.4678531,5.96334586 11.1087503,6.00426855 11.7168511,6.07550359 C12.0876991,6.62125487 12.4531836,7.19825408 12.7957835,7.84069549 C13.1241576,8.45649532 13.4145327,9.08680331 13.6707219,9.71804511 C13.4144985,10.3496668 13.1243551,10.980951 12.7957835,11.5971201 C12.4542477,12.237708 12.0896721,12.8109888 11.7200383,13.3554105 C11.0904586,13.4299911 10.4446231,13.4727444 9.79166667,13.4727444 C9.11548028,13.4727444 8.47458306,13.4318217 7.8664822,13.3605866 C7.49563425,12.8148354 7.13014969,12.2395615 6.78754988,11.5971201 C6.45897826,10.980951 6.1689083,10.3496668 5.91261142,9.71804511 C6.16872715,9.08680331 6.45917573,8.45649532 6.78754988,7.84069549 C7.12921703,7.20010758 7.49357229,6.62510145 7.86329502,6.08067977 C8.4928747,6.00609908 9.13871019,5.96334586 9.79166667,5.96334586 Z M13.6643475,6.44131113 C13.9880821,6.52593586 14.2993037,6.61728991 14.5918778,6.71911735 C14.525594,7.04339173 14.444532,7.37388301 14.3528241,7.70783126 C14.2478248,7.49450427 14.1460004,7.28049701 14.0324914,7.06766917 C13.9157037,6.84874459 13.7860498,6.65205312 13.6643475,6.44131113 Z M5.9173922,6.44303652 C5.79609957,6.65312917 5.66725535,6.84944694 5.55084231,7.06766917 C5.43736684,7.28053323 5.3354768,7.49447335 5.2305094,7.70783126 C5.13859323,7.37319479 5.05621259,7.04230949 4.9898614,6.71739195 C5.28780175,6.61547086 5.5982467,6.5252132 5.9173922,6.44303652 Z M3.64637587,7.28508305 C3.81829828,8.07102553 4.05679333,8.88575462 4.36353891,9.71631972 C4.05744334,10.544912 3.81995185,11.3581446 3.64796954,12.1423802 C2.22697807,11.3994463 1.42795139,10.4746152 1.42795139,9.71804511 C1.42795139,8.94148496 2.20465495,8.0564944 3.50613064,7.35237786 C3.55055372,7.32831686 3.60098537,7.30858128 3.64637587,7.28508305 Z M15.9353639,7.29371002 C17.356355,8.03664397 18.1553819,8.96147498 18.1553819,9.71804511 C18.1553819,10.4946053 17.3786784,11.3795958 16.0772027,12.0837124 C16.0327795,12.1077734 15.9823476,12.1275089 15.9369575,12.1510072 C15.7649342,11.3646035 15.5283928,10.5491138 15.2213882,9.71804511 C15.5271166,8.8901675 15.763525,8.07728925 15.9353639,7.29371002 Z M9.79166667,7.95112782 C8.89001736,7.95112782 8.15972222,8.74182331 8.15972222,9.71804511 C8.15972222,10.6942669 8.89001736,11.4849624 9.79166667,11.4849624 C10.693316,11.4849624 11.4236111,10.6942669 11.4236111,9.71804511 C11.4236111,8.74182331 10.693316,7.95112782 9.79166667,7.95112782 Z M5.2305094,11.728259 C5.33554395,11.9416646 5.43888423,12.1555146 5.55243598,12.3684211 C5.66909635,12.5871875 5.79741328,12.7841838 5.9189858,12.9947791 C5.59525127,12.9101544 5.28402934,12.8188003 4.99145508,12.7169729 C5.05778856,12.3924953 5.13872183,12.0624201 5.2305094,11.728259 Z M14.3528241,11.7299844 C14.4446373,12.0642984 14.5271753,12.3940855 14.5934723,12.7186983 C14.2955314,12.8206194 13.9850866,12.910877 13.6659411,12.9930537 C13.7872338,12.7829611 13.9160782,12.5866433 14.0324914,12.3684211 C14.1457303,12.1559996 14.2480573,11.9428979 14.3528241,11.7299844 Z M4.77311878,14.2630255 C5.49222776,14.4962091 6.2685687,14.6822637 7.09194587,14.810011 C7.59938431,15.506771 8.12470477,16.1336644 8.66333049,16.6839098 C7.74769052,17.3639212 6.90416292,17.7312907 6.26641208,17.7312907 C6.00856405,17.7312907 5.79340278,17.6753156 5.60980903,17.560466 C4.98885417,17.1726277 4.66987276,16.0012304 4.75718178,14.428674 C4.76017175,14.374776 4.76918939,14.3175543 4.77311878,14.2630255 Z M14.8102149,14.2630255 C14.8141242,14.3175543 14.8231839,14.374776 14.8261516,14.428674 C14.9134607,16.0012304 14.5944792,17.1717442 13.9735243,17.560466 C13.7899306,17.6753156 13.5755844,17.7312907 13.3169212,17.7312907 C12.6791704,17.7312907 11.8356428,17.3640343 10.9200028,16.6839098 C11.4586685,16.1336008 11.9854423,15.5068673 12.4929811,14.810011 C13.3157862,14.6822726 14.0915571,14.4960625 14.8102149,14.2630255 Z M9.12868924,14.9998168 C9.34882385,15.0078227 9.56778592,15.018797 9.79166667,15.018797 C10.0155474,15.018797 10.2345095,15.0078227 10.4546441,14.9998168 C10.2325087,15.2519983 10.0128604,15.4824052 9.79166667,15.7003712 C9.57047292,15.482391 9.35082462,15.252 9.12868924,14.9998168 Z"></path>
                        </g>
                    </g>
                </g>
            </g>
        </g>
    </g>
</svg>