<?xml version="1.0" encoding="UTF-8"?>
<svg width="12px" height="13px" viewBox="0 0 12 13" version="1.1" xmlns="http://www.w3.org/2000/svg" xmlns:xlink="http://www.w3.org/1999/xlink">
    <!-- Generator: Sketch 61 (89581) - https://sketch.com -->
    <title>Slack</title>
    <desc>Created with Sketch.</desc>
    <g id="Page-1" stroke="none" stroke-width="1" fill="none" fill-rule="evenodd">
        <g id="Resume-Letter" transform="translate(-503.000000, -539.000000)" fill="#2555AC" fill-rule="nonzero">
            <g id="Skills&amp;Tools" transform="translate(30.000000, 439.000000)">
                <g id="Skills" transform="translate(5.000000, 30.500000)">
                    <g id="Skill-Group6" transform="translate(468.000000, 0.000000)">
                        <g id="Slack" transform="translate(0.000000, 69.000000)">
                            <g transform="translate(0.000000, 1.000000)" id="Shape">
                                <path d="M6.70255335,0.164634146 C6.57393293,0.153916006 6.43102134,0.178925305 6.30240091,0.22179878 C5.78613293,0.395078963 5.51460091,0.948861585 5.6878811,1.46512957 L6.1023247,2.67987805 L3.7585747,3.46589177 L3.37271341,2.29401677 C3.19943323,1.77774878 2.64565061,1.50621677 2.12938262,1.67949695 C1.61132835,1.85277713 1.32729146,2.40655976 1.50057165,2.92282774 L1.88643293,4.08041159 L0.671684451,4.49485518 C0.155416463,4.66813537 -0.116115549,5.23620915 0.0571646341,5.75247713 C0.230444817,6.26874512 0.784227439,6.54027713 1.30049543,6.36699695 L2.5152439,5.96684451 L3.30125762,8.29630335 L2.12938262,8.68216463 C1.61311463,8.85544482 1.34158262,9.40922744 1.5148628,9.92549543 C1.68814299,10.4435502 2.24192561,10.7275866 2.7581936,10.5543064 L3.91577744,10.1684451 L4.33022104,11.3831936 C4.50350122,11.8994616 5.071575,12.1709936 5.58784299,11.9977134 C6.10411098,11.8244332 6.37564299,11.2706506 6.2023628,10.7543826 L5.80221037,9.53963415 L8.13166921,8.75362043 L8.51753049,9.92549543 C8.69081067,10.4417634 9.24459329,10.7132954 9.76086128,10.5400152 C10.278916,10.3667351 10.5629524,9.81295244 10.3896723,9.29668445 L10.003811,8.13910061 L11.2185595,7.72465701 C11.7348274,7.55137683 12.0063595,6.98330305 11.8330793,6.46703506 C11.6597991,5.95076707 11.1060165,5.67923506 10.5897485,5.85251524 L9.375,6.25266768 L8.58898628,3.92320884 L9.76086128,3.53734756 C10.2771293,3.36406738 10.5486613,2.81028476 10.3753811,2.29401677 C10.2021009,1.77774878 9.64831829,1.49192561 9.1320503,1.66520579 L7.97446646,2.05106707 L7.56002287,0.836318598 C7.42961616,0.448671037 7.08662835,0.195002744 6.70255335,0.164634146 Z M6.71684451,4.55201982 L7.50285823,6.88147866 L5.17339939,7.66749238 L4.38738567,5.33803354 L6.71684451,4.55201982 Z"></path>
                            </g>
                        </g>
                    </g>
                </g>
            </g>
        </g>
    </g>
</svg>