<?xml version="1.0" encoding="UTF-8"?>
<svg width="20px" height="20px" viewBox="0 0 20 20" version="1.1" xmlns="http://www.w3.org/2000/svg" xmlns:xlink="http://www.w3.org/1999/xlink">
    <!-- Generator: Sketch 61 (89581) - https://sketch.com -->
    <title>typescript</title>
    <desc>Created with Sketch.</desc>
    <g id="Page-1" stroke="none" stroke-width="1" fill="none" fill-rule="evenodd">
        <g id="Artboard" transform="translate(-155.000000, -669.000000)" fill="#2555AC" fill-rule="nonzero">
            <g id="Skills" transform="translate(155.000000, 630.000000)">
                <g id="Skill-Group1" transform="translate(0.000000, 2.000000)">
                    <g id="TypeScript" transform="translate(0.000000, 36.607143)">
                        <g id="typescript" transform="translate(0.000000, 0.678571)">
                            <path d="M17.8030303,0 L1.78030303,0 C0.796685606,0 0,0.780426716 0,1.74397032 L0,17.4397032 C0,18.4032468 0.796685606,19.1836735 1.78030303,19.1836735 L17.8030303,19.1836735 C18.7866477,19.1836735 19.5833333,18.4032468 19.5833333,17.4397032 L19.5833333,1.74397032 C19.5833333,0.780426716 18.7866477,0 17.8030303,0 Z M9.03232768,16.6963358 L7.23422162,16.6963358 L7.23422162,11.0742471 L4.94034091,11.0742471 L4.94034091,9.59837662 L11.3065188,9.59837662 L11.3065188,11.0663062 L9.03232768,11.0663062 L9.03232768,16.6963358 Z M14.6705871,16.7011317 C12.8822727,16.7011317 11.7571212,15.8762338 11.7268561,14.5420965 L13.4412879,14.5420965 C13.4849053,15.0461039 13.9985227,15.3669944 14.7435795,15.3669944 C15.4147538,15.3669944 15.8758523,15.0504638 15.8758523,14.5944156 C15.8758523,14.2107421 15.5669697,14.0040816 14.7587121,13.8462523 L13.8285038,13.6640074 C12.5351136,13.4242115 11.8692803,12.7335993 11.8692803,11.6444898 C11.8692803,10.2911688 12.9766288,9.40348794 14.6803788,9.40348794 C16.3360606,9.40348794 17.4816856,10.281577 17.5110606,11.5625232 L15.850928,11.5625232 C15.8117614,11.0733395 15.3364205,10.7323933 14.7035227,10.7323933 C14.0724053,10.7323933 13.6567045,11.0253803 13.6567045,11.4857885 C13.6567045,11.865102 13.9700379,12.0857143 14.7142045,12.2295918 L15.6239394,12.4022449 C17.0205871,12.6664564 17.6472543,13.2846939 17.6472543,14.3833952 C17.6481439,15.8282746 16.5221023,16.7011317 14.6705871,16.7011317 Z" id="Shape"></path>
                        </g>
                    </g>
                </g>
            </g>
        </g>
    </g>
</svg>