<?xml version="1.0" encoding="UTF-8"?>
<svg width="12px" height="14px" viewBox="0 0 12 14" version="1.1" xmlns="http://www.w3.org/2000/svg" xmlns:xlink="http://www.w3.org/1999/xlink">
    <!-- Generator: Sketch 61 (89581) - https://sketch.com -->
    <title>Webpack</title>
    <desc>Created with Sketch.</desc>
    <g id="Page-1" stroke="none" stroke-width="1" fill="none" fill-rule="evenodd">
        <g id="Resume-Letter" transform="translate(-132.000000, -470.000000)" fill="#2555AC" fill-rule="nonzero">
            <g id="Skills&amp;Tools" transform="translate(30.000000, 439.000000)">
                <g id="Skills" transform="translate(5.000000, 30.500000)">
                    <g id="Skill-Group2" transform="translate(97.000000, 0.000000)">
                        <g id="Webpack">
                            <g transform="translate(0.000000, 1.000000)" id="Shape">
                                <path d="M5.87896308,0.000330588789 C5.87667122,0.00050380814 5.87443823,0.00112742006 5.87214985,0.00127748547 C5.86649782,0.00164472384 5.86118765,0.00344313227 5.85554259,0.00425825581 C5.83413924,0.00733718023 5.81368408,0.013574782 5.79379775,0.0229946512 C5.7903665,0.0246121003 5.78653387,0.0241629942 5.78315211,0.0259754215 L0.114547369,3.07830109 C0.0963955596,3.08813568 0.0803507703,3.1004649 0.0660031395,3.11449622 C0.0630165044,3.1174077 0.0611544767,3.12121243 0.0583382485,3.12429026 C0.0440932849,3.13991097 0.032591577,3.15730552 0.0234204724,3.17624106 C0.020315843,3.1826165 0.0173867224,3.18869738 0.014903939,3.19540334 C0.00613822674,3.21904949 0,3.24350778 0,3.26949724 C0,3.26949724 0,3.26992304 0,3.26992304 C0,3.26992304 0,3.27034884 0,3.27034884 L0,9.81104651 C0,9.83028706 0.0028275,9.84956163 0.00766486919,9.86768154 C0.0142015334,9.89191548 0.0258024855,9.91405225 0.040027718,9.93453619 C0.0433542297,9.93935363 0.0469411701,9.94360051 0.0506733794,9.94816265 C0.0665616279,9.96755647 0.0846381541,9.98523924 0.1068825,9.99841025 C0.107273437,9.99864331 0.107767827,9.9986056 0.108159985,9.99883605 C0.108521272,9.99904731 0.108648685,9.99947813 0.109011628,9.99968765 L5.77506126,13.2687591 C5.77533488,13.2689206 5.77563859,13.2690244 5.77591308,13.2691849 C5.77618866,13.2693475 5.77648844,13.2694496 5.77676468,13.2696107 L5.77761628,13.2700365 C5.78747224,13.2757132 5.7980069,13.2788226 5.8082758,13.2828113 C5.8155327,13.2856265 5.82253299,13.289744 5.82999288,13.2917538 C5.82999288,13.2917538 5.8304189,13.2917538 5.8304189,13.2917538 C5.84899469,13.2967389 5.86747762,13.2994186 5.88620211,13.2994186 C5.88620211,13.2994186 5.88662791,13.2994186 5.88662791,13.2994186 C5.90514135,13.2994186 5.92390182,13.2969146 5.94198532,13.2921796 C5.94568365,13.2912057 5.94898801,13.2890874 5.95263096,13.2879214 C5.9661944,13.2835825 5.97988038,13.2788017 5.99265872,13.2717399 L11.8792866,10.0013911 C11.8802025,10.0008818 11.8805102,9.99978227 11.8814158,9.99926185 C11.8834411,9.99810349 11.8858068,9.99793452 11.8878033,9.99670683 C11.9078342,9.98423874 11.924591,9.96789135 11.9393283,9.95029186 C11.9431452,9.94572863 11.9461402,9.94106795 11.9495481,9.93623961 C11.962522,9.91797384 11.9729237,9.89845618 11.9797818,9.87704956 C11.9806729,9.87425821 11.9819839,9.87178343 11.9827626,9.86895894 C11.9879309,9.85028852 11.9912791,9.83094571 11.9912791,9.81104651 L11.9912791,3.27034884 C11.9912791,3.26883445 11.990458,3.2675976 11.9904275,3.26609063 C11.9898434,3.24202936 11.9843294,3.21906868 11.9763752,3.19710654 C11.9735771,3.18936846 11.9706273,3.18226461 11.967007,3.17496366 C11.9581914,3.15705894 11.9471575,3.14087834 11.9337924,3.12599368 C11.9305031,3.12233612 11.928377,3.11792333 11.92485,3.11449622 C11.9097887,3.09984528 11.8929809,3.08698408 11.873751,3.07702347 L5.98712311,0.024697936 C5.97812747,0.0200260465 5.96842304,0.0178090552 5.95901839,0.0144780959 C5.95366701,0.0125711119 5.948746,0.0104282485 5.94326294,0.00894235465 C5.92222042,0.00326012355 5.90052406,-0.000307761628 5.87896308,0.000330588789 Z M6.10465116,0.576569302 L11.2929233,3.26651642 L9.16038336,4.33321221 L6.10465116,2.70357362 L6.10465116,0.576569302 Z M5.66860465,0.583382529 L5.66860465,2.70357362 L2.61755647,4.33065719 L0.675786933,3.27162624 L5.66860465,0.583382529 Z M5.88662791,3.0817077 L8.69367733,4.57848837 L5.88662791,6.07526904 L3.07957849,4.57848837 L5.88662791,3.0817077 Z M11.5552326,3.62335923 L11.5552326,9.45846192 L9.375,8.36834564 L9.375,4.71304971 L11.5552326,3.62335923 Z M0.436046512,3.63783728 L2.39825581,4.70793968 L2.39825581,5.23255814 C2.39825581,5.353125 2.49593023,5.4505814 2.61627907,5.4505814 C2.73662791,5.4505814 2.83430233,5.353125 2.83430233,5.23255814 L2.83430233,4.9421444 L5.66860465,6.45340312 L5.66860465,9.88343699 L2.83430233,8.37217827 L2.83430233,7.84883721 C2.83430233,7.72827035 2.73662791,7.63081395 2.61627907,7.63081395 C2.49593023,7.63081395 2.39825581,7.72827035 2.39825581,7.84883721 L2.39825581,8.37345567 L0.436046512,9.44355807 L0.436046512,3.63783728 Z M8.93895349,4.9421444 L8.93895349,8.50290698 C8.93895349,8.51379876 8.94337609,8.52310683 8.94491512,8.5335665 C8.94720501,8.54925807 8.94869215,8.56476453 8.95428314,8.57955567 C8.95927238,8.59270749 8.96740531,8.60353605 8.97472282,8.61532522 C8.98207544,8.62731846 8.98847224,8.63934092 8.99814331,8.64981715 C9.0086976,8.6612274 9.02157776,8.66940283 9.03433866,8.67834767 C9.04314593,8.68453953 9.04954121,8.69297485 9.05946235,8.69793554 L11.306124,9.82126635 L6.10465116,12.7109261 L6.10465116,10.247093 L6.10465116,6.45340312 L8.93895349,4.9421444 Z M2.61627907,5.88662791 C2.49593023,5.88662791 2.39825581,5.9840843 2.39825581,6.10465116 L2.39825581,6.97674419 C2.39825581,7.09731105 2.49593023,7.19476744 2.61627907,7.19476744 C2.73662791,7.19476744 2.83430233,7.09731105 2.83430233,6.97674419 L2.83430233,6.10465116 C2.83430233,5.9840843 2.73662791,5.88662791 2.61627907,5.88662791 Z M8.30830422,8.4807641 C8.2800702,8.48330865 8.25197594,8.49166177 8.22526788,8.50588779 C8.11909055,8.56257384 8.07851446,8.69438241 8.13541853,8.80055974 L8.34066693,9.18550705 C8.37991112,9.25898089 8.4553064,9.3009061 8.5331407,9.3009061 C8.56758837,9.3009061 8.60284339,9.29279847 8.6357649,9.27535661 C8.74194222,9.21867057 8.78209251,9.08643597 8.72518844,8.98025865 L8.51994004,8.59531134 C8.47742551,8.51584186 8.39300625,8.4731298 8.30830422,8.4807641 Z M2.61713067,8.75073815 L5.66860465,10.3778217 L5.66860465,12.7041129 L0.663012122,9.81615654 L2.61713067,8.75073815 Z M7.39959004,8.9653548 C7.37136279,8.96785858 7.34320727,8.97593568 7.31655392,8.99005269 C7.2103766,9.04673874 7.17001831,9.17897333 7.22670436,9.28515065 L7.43195298,9.67009797 C7.47141519,9.7435718 7.54701802,9.7854968 7.62485233,9.7854968 C7.6593,9.7854968 7.69412922,9.77717115 7.72705073,9.75994731 C7.83322805,9.70326126 7.87358634,9.57102667 7.81690029,9.46484935 L7.61165167,9.07990203 C7.56897362,9.00043256 7.48427158,8.95784324 7.39959004,8.9653548 Z M6.49130189,9.44951969 C6.46305065,9.45206446 6.4349734,9.46041737 6.40826555,9.47464339 C6.3018702,9.53132943 6.26173016,9.66356403 6.31841621,9.76974135 L6.52366461,10.1542629 C6.56290879,10.2277367 6.63830407,10.2696619 6.71613837,10.2696619 C6.75058605,10.2696619 6.78584106,10.2615541 6.81876257,10.2441122 C6.9249399,10.1874262 6.96509019,10.0551918 6.90818612,9.94901424 L6.70293772,9.56406715 C6.6605867,9.48459746 6.57605494,9.44188539 6.49130189,9.44951969 Z"></path>
                            </g>
                        </g>
                    </g>
                </g>
            </g>
        </g>
    </g>
</svg>