<?xml version="1.0" encoding="UTF-8"?>
<svg width="20px" height="20px" viewBox="0 0 20 20" version="1.1" xmlns="http://www.w3.org/2000/svg" xmlns:xlink="http://www.w3.org/1999/xlink">
    <!-- Generator: Sketch 61 (89581) - https://sketch.com -->
    <title>Github</title>
    <desc>Created with Sketch.</desc>
    <g id="Page-1" stroke="none" stroke-width="1" fill="none" fill-rule="evenodd">
        <g id="Artboard" transform="translate(-189.000000, -848.000000)" fill="#4972AF" fill-rule="nonzero">
            <g id="Github" transform="translate(189.000000, 848.000000)">
                <path d="M9.67864372,-3.90798505e-14 C4.33207544,-3.90798505e-14 -7.10542736e-15,4.44856822 -7.10542736e-15,9.93890977 C-7.10542736e-15,14.3292418 2.77252815,18.0563329 6.61941076,19.3698742 C7.10460359,19.4604632 7.2810372,19.1563425 7.2810372,18.8910465 C7.2810372,18.6548682 7.27158519,18.0304504 7.2684348,17.2022079 C4.57467145,17.8007431 4.00756342,15.8692551 4.00756342,15.8692551 C3.56647939,14.7207164 2.93320896,14.4133606 2.93320896,14.4133606 C2.05419131,13.7986489 2.99937136,13.8115902 2.99937136,13.8115902 C3.96975622,13.8827677 4.48015385,14.833952 4.48015385,14.833952 C5.34341789,16.3545539 6.74543476,15.9145501 7.29679,15.6621945 C7.3850068,15.018366 7.63705481,14.5815973 7.91115723,14.3324777 C5.76244751,14.0833573 3.50346739,13.2292322 3.50346739,9.42125822 C3.50346739,8.33418997 3.88153941,7.4477121 4.49905704,6.75211762 C4.40138824,6.50299802 4.06742502,5.49034155 4.59357545,4.12180089 C4.59357545,4.12180089 5.40642989,3.85650405 7.25583239,5.14092676 C8.02772924,4.92092485 8.85633728,4.81092431 9.67864372,4.80768919 C10.5009502,4.81092431 11.3295582,4.92092485 12.1014551,5.14092676 C13.9508576,3.85650405 14.7605616,4.12180089 14.7605616,4.12180089 C15.2898624,5.49034155 14.9590496,6.50299802 14.8582304,6.75211762 C15.4788984,7.4477121 15.8506697,8.33418997 15.8506697,9.42125822 C15.8506697,13.2389384 13.5885383,14.0768871 11.4335278,14.3260067 C11.7800942,14.6301274 12.0888527,15.2383679 12.0888527,16.1636697 C12.0888527,17.4933873 12.0794015,18.5642792 12.0794015,18.8910465 C12.0794015,19.1563425 12.2526839,19.4669334 12.7441775,19.3698742 C16.5879097,18.0530978 19.3572874,14.3292418 19.3572874,9.93890977 C19.3572874,4.44856822 15.025212,-3.90798505e-14 9.67864372,-3.90798505e-14 Z" id="Path"></path>
            </g>
        </g>
    </g>
</svg>