<?xml version="1.0" encoding="UTF-8"?>
<svg width="116px" height="144px" viewBox="0 0 116 144" version="1.1" xmlns="http://www.w3.org/2000/svg" xmlns:xlink="http://www.w3.org/1999/xlink">
    <!-- Generator: Sketch 61 (89581) - https://sketch.com -->
    <title>resume</title>
    <desc>Created with Sketch.</desc>
    <g id="Page-1" stroke="none" stroke-width="1" fill="none" fill-rule="evenodd">
        <g id="Artboard" transform="translate(-313.000000, -810.000000)" fill="#4972AF">
            <path d="M414,810 C422.284271,810 429,816.715729 429,825 L429,939 C429,947.284271 422.284271,954 414,954 L328,954 C319.715729,954 313,947.284271 313,939 L313,825 C313,816.715729 319.715729,810 328,810 L414,810 Z M414,825 L328,825 L328,940 L414,940 L414,825 Z M400,910 L400,925 L342,925 L342,910 L400,910 Z M400,889 L400,904 L342,904 L342,889 L400,889 Z M342.422786,868.50438 C349.429228,858.480943 370.081392,857.623502 377.862018,868.180961 L378.093828,868.50438 L378.093828,874.618489 L342.422786,874.618489 L342.422786,868.50438 Z M360,832 C365.79899,832 370.5,836.70101 370.5,842.5 C370.5,848.29899 365.79899,853 360,853 C354.20101,853 349.5,848.29899 349.5,842.5 C349.5,836.70101 354.20101,832 360,832 Z" id="resume"></path>
        </g>
    </g>
</svg>